<svg width="20" height="20" viewBox="0 0 20 20" fill="none" xmlns="http://www.w3.org/2000/svg">
<path fill-rule="evenodd" clip-rule="evenodd" d="M10.0007 0.833984C4.93836 0.833984 0.833984 4.93836 0.833984 10.0007C0.833984 15.0652 4.93836 19.1673 10.0007 19.1673C15.0629 19.1673 19.1673 15.0652 19.1673 10.0007C19.1673 4.93836 15.0629 0.833984 10.0007 0.833984ZM9.23676 5.41732C9.23676 4.99565 9.57898 4.65343 10.0007 4.65343C10.4223 4.65343 10.7645 4.99489 10.7645 5.41732V10.7645C10.7645 11.1862 10.4223 11.5284 10.0007 11.5284H9.99989C9.57822 11.5284 9.236 11.187 9.236 10.7645V5.41732H9.23676ZM8.85482 14.202C8.85482 14.8345 9.36815 15.3479 10.0007 15.3479C10.6332 15.3479 11.1465 14.8345 11.1465 14.202C11.1465 13.5695 10.6332 13.0562 10.0007 13.0562C9.36815 13.0562 8.85482 13.5695 8.85482 14.202Z" fill="#666F85"/>
</svg>
