<svg width="284" height="32" viewBox="0 0 284 32" fill="none" xmlns="http://www.w3.org/2000/svg">
<rect x="0.5" y="0.5" width="283" height="31" rx="5.5" fill="#3BABDB"/>
<rect x="0.5" y="0.5" width="283" height="31" rx="5.5" stroke="#DEE3ED"/>
<path d="M75.7246 22V10.72H80.6686C81.8952 10.72 82.8392 10.9813 83.5006 11.504C84.1619 12.016 84.4926 12.7307 84.4926 13.648C84.4926 14.3307 84.2899 14.9067 83.8846 15.376C83.4792 15.8453 82.9192 16.16 82.2046 16.32V16.08C83.0259 16.1973 83.6606 16.496 84.1086 16.976C84.5672 17.4453 84.7966 18.0693 84.7966 18.848C84.7966 19.8507 84.4499 20.6293 83.7566 21.184C83.0632 21.728 82.0979 22 80.8606 22H75.7246ZM77.7086 20.432H80.6206C81.3139 20.432 81.8526 20.304 82.2366 20.048C82.6206 19.7813 82.8126 19.3493 82.8126 18.752C82.8126 18.144 82.6206 17.712 82.2366 17.456C81.8526 17.1893 81.3139 17.056 80.6206 17.056H77.7086V20.432ZM77.7086 15.504H80.3166C81.0526 15.504 81.5966 15.3707 81.9486 15.104C82.3112 14.8267 82.4926 14.4213 82.4926 13.888C82.4926 13.3547 82.3112 12.9547 81.9486 12.688C81.5966 12.4107 81.0526 12.272 80.3166 12.272H77.7086V15.504ZM90.5154 22.16C89.1608 22.16 88.0994 21.7867 87.3314 21.04C86.5634 20.2933 86.1794 19.2693 86.1794 17.968C86.1794 17.1253 86.3448 16.3893 86.6754 15.76C87.0061 15.1307 87.4648 14.64 88.0514 14.288C88.6488 13.936 89.3421 13.76 90.1314 13.76C90.9101 13.76 91.5608 13.9253 92.0834 14.256C92.6061 14.5867 93.0008 15.0507 93.2674 15.648C93.5448 16.2453 93.6834 16.944 93.6834 17.744V18.272H87.7954V17.216H92.2594L91.9874 17.44C91.9874 16.6933 91.8274 16.1227 91.5074 15.728C91.1981 15.3333 90.7448 15.136 90.1474 15.136C89.4861 15.136 88.9741 15.3707 88.6114 15.84C88.2594 16.3093 88.0834 16.9653 88.0834 17.808V18.016C88.0834 18.8907 88.2968 19.5467 88.7234 19.984C89.1608 20.4107 89.7741 20.624 90.5634 20.624C91.0221 20.624 91.4488 20.5653 91.8434 20.448C92.2488 20.32 92.6328 20.1173 92.9954 19.84L93.5874 21.184C93.2034 21.4933 92.7448 21.7333 92.2114 21.904C91.6781 22.0747 91.1128 22.16 90.5154 22.16ZM95.0921 25.632L94.6281 24.048C95.1294 23.9413 95.5507 23.8187 95.8921 23.68C96.2334 23.5413 96.5161 23.36 96.7401 23.136C96.9641 22.912 97.1507 22.624 97.3001 22.272L97.7001 21.328L97.6521 22.112L94.1321 13.92H96.2601L98.7881 20.224H98.3241L100.868 13.92H102.884L99.2041 22.448C98.9587 23.024 98.6921 23.4987 98.4041 23.872C98.1161 24.256 97.8067 24.56 97.4761 24.784C97.1454 25.0187 96.7827 25.2 96.3881 25.328C95.9934 25.456 95.5614 25.5573 95.0921 25.632ZM106.903 22.16C106.199 22.16 105.581 21.9947 105.047 21.664C104.514 21.3227 104.098 20.8373 103.799 20.208C103.501 19.5787 103.351 18.8267 103.351 17.952C103.351 17.0773 103.501 16.3307 103.799 15.712C104.098 15.0827 104.514 14.6027 105.047 14.272C105.581 13.9307 106.199 13.76 106.903 13.76C107.586 13.76 108.183 13.9307 108.695 14.272C109.218 14.6027 109.565 15.0507 109.735 15.616H109.559L109.735 13.92H111.655C111.623 14.2507 111.591 14.5867 111.559 14.928C111.538 15.2693 111.527 15.6053 111.527 15.936V22H109.543L109.527 20.336H109.719C109.549 20.8907 109.202 21.3333 108.679 21.664C108.157 21.9947 107.565 22.16 106.903 22.16ZM107.463 20.624C108.093 20.624 108.599 20.4053 108.983 19.968C109.367 19.52 109.559 18.848 109.559 17.952C109.559 17.056 109.367 16.3893 108.983 15.952C108.599 15.5147 108.093 15.296 107.463 15.296C106.834 15.296 106.327 15.5147 105.943 15.952C105.559 16.3893 105.367 17.056 105.367 17.952C105.367 18.848 105.554 19.52 105.927 19.968C106.311 20.4053 106.823 20.624 107.463 20.624ZM113.705 22V15.936C113.705 15.6053 113.695 15.2693 113.673 14.928C113.652 14.5867 113.62 14.2507 113.577 13.92H115.513L115.673 15.52H115.481C115.737 14.9547 116.116 14.5227 116.617 14.224C117.119 13.9147 117.7 13.76 118.361 13.76C119.311 13.76 120.025 14.0267 120.505 14.56C120.985 15.0933 121.225 15.9253 121.225 17.056V22H119.225V17.152C119.225 16.5013 119.097 16.0373 118.841 15.76C118.596 15.472 118.223 15.328 117.721 15.328C117.103 15.328 116.612 15.52 116.249 15.904C115.887 16.288 115.705 16.8 115.705 17.44V22H113.705ZM123.346 22V15.936C123.346 15.6053 123.335 15.2693 123.314 14.928C123.292 14.5867 123.26 14.2507 123.218 13.92H125.154L125.314 15.52H125.122C125.378 14.9547 125.756 14.5227 126.258 14.224C126.759 13.9147 127.34 13.76 128.002 13.76C128.951 13.76 129.666 14.0267 130.146 14.56C130.626 15.0933 130.866 15.9253 130.866 17.056V22H128.866V17.152C128.866 16.5013 128.738 16.0373 128.482 15.76C128.236 15.472 127.863 15.328 127.362 15.328C126.743 15.328 126.252 15.52 125.89 15.904C125.527 16.288 125.346 16.8 125.346 17.44V22H123.346ZM136.106 22.16C135.402 22.16 134.784 21.9947 134.25 21.664C133.717 21.3227 133.301 20.8373 133.002 20.208C132.704 19.5787 132.554 18.8267 132.554 17.952C132.554 17.0773 132.704 16.3307 133.002 15.712C133.301 15.0827 133.717 14.6027 134.25 14.272C134.784 13.9307 135.402 13.76 136.106 13.76C136.789 13.76 137.386 13.9307 137.898 14.272C138.421 14.6027 138.768 15.0507 138.938 15.616H138.762L138.938 13.92H140.858C140.826 14.2507 140.794 14.5867 140.762 14.928C140.741 15.2693 140.73 15.6053 140.73 15.936V22H138.746L138.73 20.336H138.922C138.752 20.8907 138.405 21.3333 137.882 21.664C137.36 21.9947 136.768 22.16 136.106 22.16ZM136.666 20.624C137.296 20.624 137.802 20.4053 138.186 19.968C138.57 19.52 138.762 18.848 138.762 17.952C138.762 17.056 138.57 16.3893 138.186 15.952C137.802 15.5147 137.296 15.296 136.666 15.296C136.037 15.296 135.53 15.5147 135.146 15.952C134.762 16.3893 134.57 17.056 134.57 17.952C134.57 18.848 134.757 19.52 135.13 19.968C135.514 20.4053 136.026 20.624 136.666 20.624ZM142.908 22V15.936C142.908 15.6053 142.898 15.2693 142.876 14.928C142.855 14.5867 142.823 14.2507 142.78 13.92H144.716L144.876 15.52H144.684C144.908 14.9653 145.25 14.5333 145.708 14.224C146.178 13.9147 146.732 13.76 147.372 13.76C148.012 13.76 148.54 13.9147 148.956 14.224C149.383 14.5227 149.682 14.992 149.852 15.632H149.596C149.82 15.056 150.188 14.6027 150.7 14.272C151.212 13.9307 151.799 13.76 152.46 13.76C153.367 13.76 154.044 14.0267 154.492 14.56C154.94 15.0933 155.164 15.9253 155.164 17.056V22H153.164V17.136C153.164 16.496 153.058 16.0373 152.844 15.76C152.631 15.472 152.29 15.328 151.82 15.328C151.266 15.328 150.828 15.5253 150.508 15.92C150.188 16.304 150.028 16.8267 150.028 17.488V22H148.028V17.136C148.028 16.496 147.922 16.0373 147.708 15.76C147.495 15.472 147.154 15.328 146.684 15.328C146.13 15.328 145.692 15.5253 145.372 15.92C145.063 16.304 144.908 16.8267 144.908 17.488V22H142.908ZM161.203 22.16C159.848 22.16 158.787 21.7867 158.019 21.04C157.251 20.2933 156.867 19.2693 156.867 17.968C156.867 17.1253 157.032 16.3893 157.363 15.76C157.694 15.1307 158.152 14.64 158.739 14.288C159.336 13.936 160.03 13.76 160.819 13.76C161.598 13.76 162.248 13.9253 162.771 14.256C163.294 14.5867 163.688 15.0507 163.955 15.648C164.232 16.2453 164.371 16.944 164.371 17.744V18.272H158.483V17.216H162.947L162.675 17.44C162.675 16.6933 162.515 16.1227 162.195 15.728C161.886 15.3333 161.432 15.136 160.835 15.136C160.174 15.136 159.662 15.3707 159.299 15.84C158.947 16.3093 158.771 16.9653 158.771 17.808V18.016C158.771 18.8907 158.984 19.5467 159.411 19.984C159.848 20.4107 160.462 20.624 161.251 20.624C161.71 20.624 162.136 20.5653 162.531 20.448C162.936 20.32 163.32 20.1173 163.683 19.84L164.275 21.184C163.891 21.4933 163.432 21.7333 162.899 21.904C162.366 22.0747 161.8 22.16 161.203 22.16ZM173.367 22V16.672L173.799 17.904L168.951 10.72H171.335L174.663 15.84H174.215L177.543 10.72H179.847L175.015 17.904L175.431 16.672V22H173.367ZM182.227 22.16C181.235 22.16 180.493 21.888 180.003 21.344C179.512 20.8 179.267 19.968 179.267 18.848V13.92H181.267V18.832C181.267 19.4293 181.389 19.872 181.635 20.16C181.88 20.4373 182.253 20.576 182.755 20.576C183.32 20.576 183.779 20.384 184.131 20C184.493 19.616 184.675 19.1093 184.675 18.48V13.92H186.675V22H184.723V20.352H184.947C184.712 20.928 184.355 21.376 183.875 21.696C183.405 22.0053 182.856 22.16 182.227 22.16ZM183.587 12.432V10.592H185.427V12.432H183.587ZM180.563 12.432V10.592H182.403V12.432H180.563ZM188.846 22V10.224H190.846V17.36H190.878L194.158 13.92H196.574L192.494 18.192L192.51 17.392L196.862 22H194.382L190.878 18.384H190.846V22H188.846ZM197.674 22V10.224H199.674V22H197.674ZM205.75 22.16C204.395 22.16 203.334 21.7867 202.566 21.04C201.798 20.2933 201.414 19.2693 201.414 17.968C201.414 17.1253 201.579 16.3893 201.91 15.76C202.24 15.1307 202.699 14.64 203.286 14.288C203.883 13.936 204.576 13.76 205.366 13.76C206.144 13.76 206.795 13.9253 207.318 14.256C207.84 14.5867 208.235 15.0507 208.502 15.648C208.779 16.2453 208.918 16.944 208.918 17.744V18.272H203.03V17.216H207.494L207.222 17.44C207.222 16.6933 207.062 16.1227 206.742 15.728C206.432 15.3333 205.979 15.136 205.382 15.136C204.72 15.136 204.208 15.3707 203.846 15.84C203.494 16.3093 203.318 16.9653 203.318 17.808V18.016C203.318 18.8907 203.531 19.5467 203.958 19.984C204.395 20.4107 205.008 20.624 205.798 20.624C206.256 20.624 206.683 20.5653 207.078 20.448C207.483 20.32 207.867 20.1173 208.23 19.84L208.822 21.184C208.438 21.4933 207.979 21.7333 207.446 21.904C206.912 22.0747 206.347 22.16 205.75 22.16Z" fill="#222943"/>
</svg>
