<svg width="20" height="20" viewBox="0 0 20 20" fill="none" xmlns="http://www.w3.org/2000/svg">
<path fill-rule="evenodd" clip-rule="evenodd" d="M3.51859 3.51867C7.09882 -0.0609113 12.9027 -0.0609113 16.4821 3.51867C20.0624 7.09825 20.0624 12.903 16.4821 16.4826C12.9019 20.0622 7.09806 20.0622 3.51859 16.4826C-0.0608834 12.9023 -0.0608834 7.09902 3.51859 3.51867ZM9.3507 13.3324L14.3998 7.442C14.6748 7.12194 14.6374 6.63916 14.3158 6.36492C13.9965 6.09069 13.5138 6.12812 13.2388 6.44742L9.12154 11.2515L6.63898 9.38916C6.30058 9.13555 5.8224 9.20506 5.56957 9.54193C5.31673 9.87957 5.38471 10.3585 5.72234 10.6114L9.3507 13.3324Z" fill="#3CBA54"/>
</svg>
