<svg width="24" height="8" viewBox="0 0 24 8" fill="none" xmlns="http://www.w3.org/2000/svg">
<path fill-rule="evenodd" clip-rule="evenodd" d="M3.86082 2.91361C4.28396 1.20853 5.90122 0.001603 7.76502 0C9.62883 0.001603 11.2461 1.20853 11.6692 2.91361H23.0782C23.5873 2.91361 24 3.3013 24 3.77954C24 4.25779 23.5873 4.64548 23.0782 4.64548H11.6692C11.2399 6.34473 9.62421 7.54442 7.76502 7.54442C5.90584 7.54442 4.29014 6.34473 3.86082 4.64548H0.921826C0.412715 4.64548 0 4.25779 0 3.77954C0 3.3013 0.412715 2.91361 0.921826 2.91361H3.86082ZM5.59613 3.78944C5.59613 4.91472 6.56723 5.82693 7.76513 5.82693C8.96304 5.82693 9.93413 4.91472 9.93413 3.78944C9.93413 2.66417 8.96304 1.75195 7.76513 1.75195C6.56723 1.75195 5.59613 2.66417 5.59613 3.78944Z" fill="#666F85"/>
</svg>
