<svg width="24" height="8" viewBox="0 0 24 8" fill="none" xmlns="http://www.w3.org/2000/svg">
<path fill-rule="evenodd" clip-rule="evenodd" d="M12.3633 3.36869C12.7864 1.66361 14.4037 0.456681 16.2675 0.455078C18.1191 0.470791 19.7189 1.67466 20.1392 3.36869H23.0782C23.5873 3.36869 24 3.75638 24 4.23462C24 4.71286 23.5873 5.10055 23.0782 5.10055H20.1392C19.7099 6.79981 18.0942 7.9995 16.235 7.9995C14.3758 7.9995 12.7601 6.79981 12.3308 5.10055H0.921826C0.412715 5.10055 0 4.71286 0 4.23462C0 3.75638 0.412715 3.36869 0.921826 3.36869H12.3633ZM14.0984 4.2245C14.0984 5.34978 15.0695 6.26199 16.2674 6.26199C17.4653 6.26199 18.4364 5.34978 18.4364 4.2245C18.4364 3.09923 17.4653 2.18701 16.2674 2.18701C15.0695 2.18701 14.0984 3.09923 14.0984 4.2245Z" fill="#666F85"/>
</svg>
