<svg width="76" height="12" viewBox="0 0 76 12" fill="none" xmlns="http://www.w3.org/2000/svg">
<path d="M0.092 11V1.13H1.45L7.176 8.536H6.812V1.13H8.492V11H7.134L1.422 3.594H1.772V11H0.092ZM9.56836 11L14.0344 1.13H15.5464L20.0684 11H18.2344L17.0304 8.228L17.7584 8.718H11.8364L12.5924 8.228L11.3884 11H9.56836ZM14.7764 3.062L12.8024 7.738L12.4384 7.304H17.1424L16.8484 7.738L14.8324 3.062H14.7764ZM25.5473 11.14C24.5206 11.14 23.6386 10.9347 22.9013 10.524C22.1733 10.104 21.6133 9.516 21.2213 8.76C20.8293 7.99467 20.6333 7.094 20.6333 6.058C20.6333 5.022 20.8293 4.126 21.2213 3.37C21.6133 2.614 22.1733 2.03067 22.9013 1.62C23.6386 1.2 24.5206 0.99 25.5473 0.99C26.2379 0.99 26.8586 1.088 27.4093 1.284C27.9693 1.48 28.4499 1.76933 28.8513 2.152L28.2633 3.58C27.8246 3.22533 27.3999 2.97333 26.9893 2.824C26.5879 2.66533 26.1259 2.586 25.6033 2.586C24.6046 2.586 23.8393 2.88933 23.3073 3.496C22.7846 4.09333 22.5233 4.94733 22.5233 6.058C22.5233 7.16867 22.7846 8.02733 23.3073 8.634C23.8393 9.24067 24.6046 9.544 25.6033 9.544C26.1259 9.544 26.5879 9.46933 26.9893 9.32C27.3999 9.16133 27.8246 8.9 28.2633 8.536L28.8513 9.964C28.4499 10.3373 27.9693 10.6267 27.4093 10.832C26.8586 11.0373 26.2379 11.14 25.5473 11.14ZM30.5393 11V1.13H37.1893V2.544H32.2753V5.274H36.8673V6.702H32.2753V9.572H37.1893V11H30.5393ZM42.7072 11V1.13H44.5132V5.498H44.5412L48.8392 1.13H51.0232L45.8712 6.268L45.8852 5.484L51.3592 11H49.1052L44.5412 6.436H44.5132V11H42.7072ZM54.9057 11.14C54.1777 11.14 53.5477 10.9907 53.0157 10.692C52.4837 10.3933 52.0684 9.96867 51.7697 9.418C51.4804 8.86733 51.3357 8.214 51.3357 7.458C51.3357 6.702 51.4804 6.05333 51.7697 5.512C52.0684 4.96133 52.4837 4.53667 53.0157 4.238C53.5477 3.93933 54.1777 3.79 54.9057 3.79C55.6337 3.79 56.2637 3.93933 56.7957 4.238C57.3371 4.53667 57.7524 4.96133 58.0417 5.512C58.3404 6.05333 58.4897 6.702 58.4897 7.458C58.4897 8.214 58.3404 8.86733 58.0417 9.418C57.7524 9.96867 57.3371 10.3933 56.7957 10.692C56.2637 10.9907 55.6337 11.14 54.9057 11.14ZM54.9057 9.796C55.4564 9.796 55.8951 9.60467 56.2217 9.222C56.5484 8.83 56.7117 8.242 56.7117 7.458C56.7117 6.674 56.5484 6.09067 56.2217 5.708C55.8951 5.32533 55.4564 5.134 54.9057 5.134C54.3551 5.134 53.9164 5.32533 53.5897 5.708C53.2631 6.09067 53.0997 6.674 53.0997 7.458C53.0997 8.242 53.2631 8.83 53.5897 9.222C53.9164 9.60467 54.3551 9.796 54.9057 9.796ZM62.7429 11.14C62.1269 11.14 61.5809 10.9953 61.1049 10.706C60.6382 10.4073 60.2742 9.98267 60.0129 9.432C59.7515 8.88133 59.6209 8.22333 59.6209 7.458C59.6209 6.69267 59.7515 6.03933 60.0129 5.498C60.2742 4.94733 60.6382 4.52733 61.1049 4.238C61.5809 3.93933 62.1269 3.79 62.7429 3.79C63.3309 3.79 63.8489 3.93467 64.2969 4.224C64.7542 4.504 65.0575 4.88667 65.2069 5.372H65.0249V0.695999H66.7749V11H65.0529V9.502H65.2209C65.0715 10.006 64.7682 10.4073 64.3109 10.706C63.8629 10.9953 63.3402 11.14 62.7429 11.14ZM63.2329 9.796C63.7835 9.796 64.2269 9.60467 64.5629 9.222C64.8989 8.83 65.0669 8.242 65.0669 7.458C65.0669 6.674 64.8989 6.09067 64.5629 5.708C64.2269 5.32533 63.7835 5.134 63.2329 5.134C62.6822 5.134 62.2342 5.32533 61.8889 5.708C61.5529 6.09067 61.3849 6.674 61.3849 7.458C61.3849 8.242 61.5529 8.83 61.8889 9.222C62.2342 9.60467 62.6822 9.796 63.2329 9.796ZM71.2285 11.14C70.3605 11.14 69.7118 10.902 69.2825 10.426C68.8532 9.95 68.6385 9.222 68.6385 8.242V3.93H70.3885V8.228C70.3885 8.75067 70.4958 9.138 70.7105 9.39C70.9252 9.63267 71.2518 9.754 71.6905 9.754C72.1852 9.754 72.5865 9.586 72.8945 9.25C73.2118 8.914 73.3705 8.47067 73.3705 7.92V3.93H75.1205V11H73.4125V9.558H73.6085C73.4032 10.062 73.0905 10.454 72.6705 10.734C72.2598 11.0047 71.7792 11.14 71.2285 11.14Z" fill="#222943"/>
</svg>
