<?xml version="1.0" ?><!DOCTYPE svg  PUBLIC '-//W3C//DTD SVG 1.1//EN'  'http://www.w3.org/Graphics/SVG/1.1/DTD/svg11.dtd'><svg enable-background="new 0 0 91 91" height="91px" id="Layer_1" version="1.1" viewBox="0 0 91 91" width="91px" xml:space="preserve" xmlns="http://www.w3.org/2000/svg" xmlns:xlink="http://www.w3.org/1999/xlink">
<style type="text/css">
	.st0{fill:#FFFFFF;}
</style>

<g><path class="st0"  d="M36.449,59.943c0.018,0.048,0.035,0.094,0.059,0.14c0.018,0.041,0.025,0.084,0.049,0.123l7.65,13.319   c0.305,0.527,0.865,0.853,1.475,0.853s1.17-0.325,1.475-0.853l7.354-12.805c0.434-0.309,0.734-0.789,0.734-1.361v-32.65   c0-3.594-2.926-6.519-6.52-6.519h-5.873c-3.596,0-6.52,2.924-6.52,6.519v32.65c0,0.002,0.002,0.005,0.002,0.008   C36.334,59.563,36.381,59.756,36.449,59.943z M45.682,69.265l-4.713-8.205h9.426L45.682,69.265z M39.732,26.709   c0-1.72,1.398-3.119,3.119-3.119h5.873c1.721,0,3.119,1.399,3.119,3.119v1.769H39.732V26.709z M39.732,31.878h12.111v25.781H39.732   V31.878z"/><rect height="15.087" width="3.4" x="44.088" style="fill:rgb(255,255,255)" y="36.553"/></g></svg>