<svg width="284" height="32" viewBox="0 0 284 32" fill="none" xmlns="http://www.w3.org/2000/svg">
<rect x="0.5" y="0.5" width="283" height="31" rx="5.5" fill="white"/>
<path d="M91.0136 22V10.72H95.9416C97.179 10.72 98.1336 11.0133 98.8056 11.6C99.4883 12.1867 99.8296 13.0027 99.8296 14.048C99.8296 14.7413 99.675 15.3333 99.3656 15.824C99.067 16.3147 98.635 16.6933 98.0696 16.96C97.5043 17.216 96.8376 17.344 96.0696 17.344L96.2936 17.04H96.8376C97.2856 17.04 97.6856 17.1573 98.0376 17.392C98.3896 17.6267 98.6776 17.984 98.9016 18.464L100.55 22H98.2776L96.6136 18.336C96.4643 17.9627 96.235 17.7173 95.9256 17.6C95.627 17.4827 95.2643 17.424 94.8376 17.424H93.0776V22H91.0136ZM93.0776 15.904H95.6056C96.331 15.904 96.8803 15.7547 97.2536 15.456C97.6376 15.1467 97.8296 14.6987 97.8296 14.112C97.8296 13.5253 97.6376 13.0827 97.2536 12.784C96.8803 12.4853 96.331 12.336 95.6056 12.336H93.0776V15.904ZM105.13 22.16C104.426 22.16 103.807 21.9947 103.274 21.664C102.741 21.3227 102.325 20.8373 102.026 20.208C101.727 19.5787 101.578 18.8267 101.578 17.952C101.578 17.0773 101.727 16.3307 102.026 15.712C102.325 15.0827 102.741 14.6027 103.274 14.272C103.807 13.9307 104.426 13.76 105.13 13.76C105.813 13.76 106.41 13.9307 106.922 14.272C107.445 14.6027 107.791 15.0507 107.962 15.616H107.786L107.962 13.92H109.882C109.85 14.2507 109.818 14.5867 109.786 14.928C109.765 15.2693 109.754 15.6053 109.754 15.936V22H107.77L107.754 20.336H107.946C107.775 20.8907 107.429 21.3333 106.906 21.664C106.383 21.9947 105.791 22.16 105.13 22.16ZM105.69 20.624C106.319 20.624 106.826 20.4053 107.21 19.968C107.594 19.52 107.786 18.848 107.786 17.952C107.786 17.056 107.594 16.3893 107.21 15.952C106.826 15.5147 106.319 15.296 105.69 15.296C105.061 15.296 104.554 15.5147 104.17 15.952C103.786 16.3893 103.594 17.056 103.594 17.952C103.594 18.848 103.781 19.52 104.154 19.968C104.538 20.4053 105.05 20.624 105.69 20.624ZM111.932 25.456V15.936C111.932 15.6053 111.921 15.2693 111.9 14.928C111.878 14.5867 111.846 14.2507 111.804 13.92H113.74L113.916 15.616H113.74C113.9 15.0507 114.236 14.6027 114.748 14.272C115.27 13.9307 115.873 13.76 116.556 13.76C117.27 13.76 117.894 13.9307 118.428 14.272C118.961 14.6027 119.377 15.0827 119.676 15.712C119.974 16.3307 120.124 17.0773 120.124 17.952C120.124 18.8267 119.974 19.5787 119.676 20.208C119.377 20.8373 118.961 21.3227 118.428 21.664C117.894 21.9947 117.27 22.16 116.556 22.16C115.884 22.16 115.292 21.9947 114.78 21.664C114.268 21.3333 113.926 20.8907 113.756 20.336H113.932V25.456H111.932ZM115.996 20.624C116.636 20.624 117.148 20.4053 117.532 19.968C117.916 19.52 118.108 18.848 118.108 17.952C118.108 17.056 117.916 16.3893 117.532 15.952C117.148 15.5147 116.636 15.296 115.996 15.296C115.366 15.296 114.86 15.5147 114.476 15.952C114.092 16.3893 113.9 17.056 113.9 17.952C113.9 18.848 114.092 19.52 114.476 19.968C114.86 20.4053 115.366 20.624 115.996 20.624ZM125.502 22.16C124.67 22.16 123.95 21.9893 123.342 21.648C122.734 21.3067 122.259 20.8213 121.918 20.192C121.587 19.5627 121.422 18.816 121.422 17.952C121.422 17.088 121.587 16.3467 121.918 15.728C122.259 15.0987 122.734 14.6133 123.342 14.272C123.95 13.9307 124.67 13.76 125.502 13.76C126.334 13.76 127.054 13.9307 127.662 14.272C128.28 14.6133 128.755 15.0987 129.086 15.728C129.427 16.3467 129.598 17.088 129.598 17.952C129.598 18.816 129.427 19.5627 129.086 20.192C128.755 20.8213 128.28 21.3067 127.662 21.648C127.054 21.9893 126.334 22.16 125.502 22.16ZM125.502 20.624C126.131 20.624 126.632 20.4053 127.006 19.968C127.379 19.52 127.566 18.848 127.566 17.952C127.566 17.056 127.379 16.3893 127.006 15.952C126.632 15.5147 126.131 15.296 125.502 15.296C124.872 15.296 124.371 15.5147 123.998 15.952C123.624 16.3893 123.438 17.056 123.438 17.952C123.438 18.848 123.624 19.52 123.998 19.968C124.371 20.4053 124.872 20.624 125.502 20.624ZM131.306 22V15.984C131.306 15.6427 131.296 15.296 131.274 14.944C131.264 14.592 131.237 14.2507 131.194 13.92H133.13L133.354 16.128H133.034C133.141 15.5947 133.317 15.152 133.562 14.8C133.818 14.448 134.128 14.1867 134.49 14.016C134.853 13.8453 135.248 13.76 135.674 13.76C135.866 13.76 136.021 13.7707 136.138 13.792C136.256 13.8027 136.373 13.8293 136.49 13.872L136.474 15.632C136.272 15.5467 136.096 15.4933 135.946 15.472C135.808 15.4507 135.632 15.44 135.418 15.44C134.96 15.44 134.57 15.536 134.25 15.728C133.941 15.92 133.706 16.1867 133.546 16.528C133.397 16.8693 133.322 17.2587 133.322 17.696V22H131.306ZM140.516 22.16C139.524 22.16 138.782 21.888 138.292 21.344C137.801 20.8 137.556 19.968 137.556 18.848V13.92H139.556V18.832C139.556 19.4293 139.678 19.872 139.924 20.16C140.169 20.4373 140.542 20.576 141.044 20.576C141.609 20.576 142.068 20.384 142.42 20C142.782 19.616 142.964 19.1093 142.964 18.48V13.92H144.964V22H143.012V20.352H143.236C143.001 20.928 142.644 21.376 142.164 21.696C141.694 22.0053 141.145 22.16 140.516 22.16ZM151.686 22V10.72H153.75V22H151.686ZM151.734 9.296V7.44H153.686V9.296H151.734ZM156.072 22V15.936C156.072 15.6053 156.062 15.2693 156.04 14.928C156.019 14.5867 155.987 14.2507 155.944 13.92H157.88L158.04 15.52H157.848C158.104 14.9547 158.483 14.5227 158.984 14.224C159.486 13.9147 160.067 13.76 160.728 13.76C161.678 13.76 162.392 14.0267 162.872 14.56C163.352 15.0933 163.592 15.9253 163.592 17.056V22H161.592V17.152C161.592 16.5013 161.464 16.0373 161.208 15.76C160.963 15.472 160.59 15.328 160.088 15.328C159.47 15.328 158.979 15.52 158.616 15.904C158.254 16.288 158.072 16.8 158.072 17.44V22H156.072ZM169.425 22.16C168.593 22.16 167.862 21.9893 167.233 21.648C166.614 21.3067 166.134 20.8213 165.793 20.192C165.452 19.552 165.281 18.7947 165.281 17.92C165.281 17.0453 165.452 16.2987 165.793 15.68C166.145 15.0613 166.63 14.5867 167.249 14.256C167.868 13.9253 168.593 13.76 169.425 13.76C169.958 13.76 170.476 13.8453 170.977 14.016C171.489 14.176 171.905 14.4107 172.225 14.72L171.617 16.112C171.329 15.8453 171.004 15.648 170.641 15.52C170.289 15.3813 169.942 15.312 169.601 15.312C168.886 15.312 168.326 15.536 167.921 15.984C167.526 16.432 167.329 17.0827 167.329 17.936C167.329 18.7893 167.526 19.4453 167.921 19.904C168.326 20.3627 168.886 20.592 169.601 20.592C169.932 20.592 170.273 20.528 170.625 20.4C170.988 20.272 171.318 20.0747 171.617 19.808L172.225 21.184C171.894 21.4933 171.473 21.7333 170.961 21.904C170.46 22.0747 169.948 22.16 169.425 22.16ZM177.523 22.16C176.169 22.16 175.107 21.7867 174.339 21.04C173.571 20.2933 173.187 19.2693 173.187 17.968C173.187 17.1253 173.353 16.3893 173.683 15.76C174.014 15.1307 174.473 14.64 175.059 14.288C175.657 13.936 176.35 13.76 177.139 13.76C177.918 13.76 178.569 13.9253 179.091 14.256C179.614 14.5867 180.009 15.0507 180.275 15.648C180.553 16.2453 180.691 16.944 180.691 17.744V18.272H174.803V17.216H179.267L178.995 17.44C178.995 16.6933 178.835 16.1227 178.515 15.728C178.206 15.3333 177.753 15.136 177.155 15.136C176.494 15.136 175.982 15.3707 175.619 15.84C175.267 16.3093 175.091 16.9653 175.091 17.808V18.016C175.091 18.8907 175.305 19.5467 175.731 19.984C176.169 20.4107 176.782 20.624 177.571 20.624C178.03 20.624 178.457 20.5653 178.851 20.448C179.257 20.32 179.641 20.1173 180.003 19.84L180.595 21.184C180.211 21.4933 179.753 21.7333 179.219 21.904C178.686 22.0747 178.121 22.16 177.523 22.16ZM182.385 22V10.224H184.385V22H182.385ZM190.461 22.16C189.106 22.16 188.045 21.7867 187.277 21.04C186.509 20.2933 186.125 19.2693 186.125 17.968C186.125 17.1253 186.29 16.3893 186.621 15.76C186.951 15.1307 187.41 14.64 187.997 14.288C188.594 13.936 189.287 13.76 190.077 13.76C190.855 13.76 191.506 13.9253 192.029 14.256C192.551 14.5867 192.946 15.0507 193.213 15.648C193.49 16.2453 193.629 16.944 193.629 17.744V18.272H187.741V17.216H192.205L191.933 17.44C191.933 16.6933 191.773 16.1227 191.453 15.728C191.143 15.3333 190.69 15.136 190.093 15.136C189.431 15.136 188.919 15.3707 188.557 15.84C188.205 16.3093 188.029 16.9653 188.029 17.808V18.016C188.029 18.8907 188.242 19.5467 188.669 19.984C189.106 20.4107 189.719 20.624 190.509 20.624C190.967 20.624 191.394 20.5653 191.789 20.448C192.194 20.32 192.578 20.1173 192.941 19.84L193.533 21.184C193.149 21.4933 192.69 21.7333 192.157 21.904C191.623 22.0747 191.058 22.16 190.461 22.16Z" fill="#222943"/>
<rect x="0.5" y="0.5" width="283" height="31" rx="5.5" stroke="#DEE3ED"/>
</svg>
