<svg width="40" height="40" viewBox="0 0 40 40" fill="none" xmlns="http://www.w3.org/2000/svg">
<path d="M34.1421 33.8136C41.9526 26.0782 41.9526 13.5369 34.1421 5.80143C26.3315 -1.93401 13.6685 -1.93401 5.85791 5.80143C-1.95264 13.5369 -1.95264 26.0782 5.85791 33.8136C13.6685 41.5491 26.3315 41.5491 34.1421 33.8136ZM8.21484 31.4794C1.70598 25.0331 1.70598 14.582 8.21484 8.1357C14.7237 1.68943 25.2763 1.68943 31.7852 8.1357C38.294 14.582 38.294 25.0331 31.7852 31.4794C25.2763 37.9257 14.7237 37.9257 8.21484 31.4794ZM19.9997 23.1084C20.9201 23.1084 21.6663 22.3694 21.6663 21.4578V11.5544C21.6663 10.6428 20.9201 9.90378 19.9997 9.90378C19.0792 9.90378 18.3331 10.6428 18.3331 11.5544V21.4578C18.3331 22.3694 19.0792 23.1084 19.9997 23.1084ZM19.9997 28.0762C20.9201 28.0762 21.6663 27.3373 21.6663 26.4257V26.4092C21.6663 25.4976 20.9201 24.7586 19.9997 24.7586C19.0792 24.7586 18.3331 25.4976 18.3331 26.4092V26.4257C18.3331 27.3373 19.0792 28.0762 19.9997 28.0762Z" fill="#EF9B0D"/>
</svg>
