<svg width="249" height="32" viewBox="0 0 249 32" fill="none" xmlns="http://www.w3.org/2000/svg">
<rect x="0.5" y="0.5" width="248" height="31" rx="5.5" fill="white"/>
<path d="M82.9433 22V10.72H85.0073V22H82.9433ZM82.9913 9.296V7.44H84.9433V9.296H82.9913ZM87.0102 22V20.688L92.0662 14.944V15.424H87.0102V13.92H93.8742V15.232L88.7702 21.024L88.7542 20.496H94.0502V22H87.0102ZM95.7521 22V15.936C95.7521 15.6053 95.7414 15.2693 95.7201 14.928C95.6987 14.5867 95.6667 14.2507 95.6241 13.92H97.5601L97.7201 15.52H97.5281C97.7841 14.9547 98.1627 14.5227 98.6641 14.224C99.1654 13.9147 99.7467 13.76 100.408 13.76C101.357 13.76 102.072 14.0267 102.552 14.56C103.032 15.0933 103.272 15.9253 103.272 17.056V22H101.272V17.152C101.272 16.5013 101.144 16.0373 100.888 15.76C100.643 15.472 100.269 15.328 99.7681 15.328C99.1494 15.328 98.6587 15.52 98.2961 15.904C97.9334 16.288 97.7521 16.8 97.7521 17.44V22H95.7521ZM105.393 22V13.92H107.393V22H105.393ZM105.281 12.4V10.448H107.505V12.4H105.281ZM114.115 22V10.72H116.179V22H114.115ZM114.163 9.296V7.44H116.115V9.296H114.163ZM118.502 25.456V15.936C118.502 15.6053 118.491 15.2693 118.47 14.928C118.449 14.5867 118.417 14.2507 118.374 13.92H120.31L120.486 15.616H120.31C120.47 15.0507 120.806 14.6027 121.318 14.272C121.841 13.9307 122.443 13.76 123.126 13.76C123.841 13.76 124.465 13.9307 124.998 14.272C125.531 14.6027 125.947 15.0827 126.246 15.712C126.545 16.3307 126.694 17.0773 126.694 17.952C126.694 18.8267 126.545 19.5787 126.246 20.208C125.947 20.8373 125.531 21.3227 124.998 21.664C124.465 21.9947 123.841 22.16 123.126 22.16C122.454 22.16 121.862 21.9947 121.35 21.664C120.838 21.3333 120.497 20.8907 120.326 20.336H120.502V25.456H118.502ZM122.566 20.624C123.206 20.624 123.718 20.4053 124.102 19.968C124.486 19.52 124.678 18.848 124.678 17.952C124.678 17.056 124.486 16.3893 124.102 15.952C123.718 15.5147 123.206 15.296 122.566 15.296C121.937 15.296 121.43 15.5147 121.046 15.952C120.662 16.3893 120.47 17.056 120.47 17.952C120.47 18.848 120.662 19.52 121.046 19.968C121.43 20.4053 121.937 20.624 122.566 20.624ZM131.802 22.16C130.842 22.16 130.116 21.9093 129.626 21.408C129.135 20.9067 128.89 20.1547 128.89 19.152V15.424H127.338V13.92H128.89V11.856L130.89 11.344V13.92H133.05V15.424H130.89V19.024C130.89 19.5787 130.996 19.968 131.21 20.192C131.423 20.416 131.716 20.528 132.09 20.528C132.292 20.528 132.463 20.512 132.602 20.48C132.751 20.448 132.895 20.4053 133.034 20.352V21.936C132.852 22.0107 132.65 22.064 132.426 22.096C132.212 22.1387 132.004 22.16 131.802 22.16ZM137.528 22.16C136.824 22.16 136.206 21.9947 135.672 21.664C135.139 21.3227 134.723 20.8373 134.424 20.208C134.126 19.5787 133.976 18.8267 133.976 17.952C133.976 17.0773 134.126 16.3307 134.424 15.712C134.723 15.0827 135.139 14.6027 135.672 14.272C136.206 13.9307 136.824 13.76 137.528 13.76C138.211 13.76 138.808 13.9307 139.32 14.272C139.843 14.6027 140.19 15.0507 140.36 15.616H140.184L140.36 13.92H142.28C142.248 14.2507 142.216 14.5867 142.184 14.928C142.163 15.2693 142.152 15.6053 142.152 15.936V22H140.168L140.152 20.336H140.344C140.174 20.8907 139.827 21.3333 139.304 21.664C138.782 21.9947 138.19 22.16 137.528 22.16ZM138.088 20.624C138.718 20.624 139.224 20.4053 139.608 19.968C139.992 19.52 140.184 18.848 140.184 17.952C140.184 17.056 139.992 16.3893 139.608 15.952C139.224 15.5147 138.718 15.296 138.088 15.296C137.459 15.296 136.952 15.5147 136.568 15.952C136.184 16.3893 135.992 17.056 135.992 17.952C135.992 18.848 136.179 19.52 136.552 19.968C136.936 20.4053 137.448 20.624 138.088 20.624ZM144.33 22V10.224H146.33V22H144.33ZM153.053 22V10.72H160.653V12.336H155.037V15.456H160.285V17.088H155.037V20.368H160.653V22H153.053ZM165.786 22.16C164.826 22.16 164.101 21.9093 163.61 21.408C163.12 20.9067 162.874 20.1547 162.874 19.152V15.424H161.322V13.92H162.874V11.856L164.874 11.344V13.92H167.034V15.424H164.874V19.024C164.874 19.5787 164.981 19.968 165.194 20.192C165.408 20.416 165.701 20.528 166.074 20.528C166.277 20.528 166.448 20.512 166.586 20.48C166.736 20.448 166.88 20.4053 167.018 20.352V21.936C166.837 22.0107 166.634 22.064 166.41 22.096C166.197 22.1387 165.989 22.16 165.786 22.16Z" fill="#222943"/>
<rect x="0.5" y="0.5" width="248" height="31" rx="5.5" stroke="#DEE3ED"/>
</svg>
