<svg width="32" height="32" viewBox="0 0 32 32" fill="none" xmlns="http://www.w3.org/2000/svg">
<path d="M4.68633 27.3137C-1.56211 21.0652 -1.56211 10.9348 4.68633 4.68633C10.9348 -1.56211 21.0652 -1.56211 27.3137 4.68633C33.5621 10.9348 33.5621 21.0652 27.3137 27.3137C21.0652 33.5621 10.9348 33.5621 4.68633 27.3137ZM6.57187 25.4281C11.779 30.6352 20.221 30.6352 25.4281 25.4281C30.6352 20.221 30.6352 11.779 25.4281 6.57187C20.221 1.36479 11.779 1.36479 6.57187 6.57187C1.36479 11.779 1.36479 20.221 6.57187 25.4281ZM14.7818 13.2921C15.2532 12.8965 15.8022 12.7224 16.2446 12.8324L16.2791 12.8403C16.8079 12.973 17.1564 13.6279 17.0536 14.3011L16.2539 19.5797C16.2267 19.7493 16.2554 19.8154 16.2667 19.8341C16.3167 19.914 16.5217 19.8509 16.7047 19.6901C16.8462 19.5668 16.9707 19.4657 17.0688 19.3932C17.2401 19.2635 17.4751 19.3464 17.5615 19.5599C17.6484 19.77 17.5836 20.0472 17.4138 20.1897L16.4182 21.0957C16.0038 21.4409 15.6161 21.6076 15.2563 21.5997C15.1738 21.5983 15.0951 21.5884 15.0148 21.5672L14.9795 21.5598C14.4379 21.4256 14.0464 20.7372 14.1456 20.0871L14.9458 14.8066C14.9718 14.636 14.9443 14.5714 14.9334 14.5531C14.8842 14.4732 14.6787 14.5364 14.4961 14.6952C14.3542 14.8224 14.2301 14.9201 14.1336 14.993C13.9553 15.1242 13.7238 15.0414 13.6385 14.8268C13.5513 14.6162 13.6172 14.3381 13.7851 14.1956L14.7818 13.2921ZM15.7319 9.80886C16.0053 9.62426 16.309 9.56072 16.6303 9.62346C16.9536 9.68619 17.2074 9.85482 17.3932 10.1289C17.5771 10.401 17.6382 10.7023 17.5771 11.024C17.5135 11.3449 17.3449 11.6038 17.0703 11.7892C16.8605 11.9334 16.6307 12.0046 16.3917 11.9998C16.3198 11.9986 16.2451 11.991 16.1739 11.9766C15.8534 11.9151 15.5937 11.7436 15.4082 11.4667C15.2236 11.1914 15.1608 10.8897 15.2236 10.5665C15.2831 10.25 15.4534 9.99387 15.7319 9.80886Z" fill="#116FC4"/>
</svg>
