<?xml version="1.0" encoding="UTF-8"?><svg xmlns="http://www.w3.org/2000/svg" xmlns:xlink="http://www.w3.org/1999/xlink" width="375" zoomAndPan="magnify" viewBox="0 0 375 374.999991" height="374.999991" preserveAspectRatio="xMidYMid meet" version="1.0"><defs><g><g id="glyph-0-0"/><g id="glyph-0-1"/><g id="glyph-0-2"><path d="M 4.421875 -0.609375 C 5.472656 -0.609375 6.367188 -0.976562 7.109375 -1.71875 C 7.859375 -2.46875 8.253906 -3.367188 8.296875 -4.421875 L 8.296875 -38.34375 C 8.171875 -39.3125 7.742188 -40.125 7.015625 -40.78125 C 6.296875 -41.445312 5.429688 -41.78125 4.421875 -41.78125 L 3.6875 -41.78125 L 3.640625 -42.390625 L 21.375 -42.390625 C 22.625 -42.390625 23.984375 -42.507812 25.453125 -42.75 C 26.929688 -43 27.972656 -43.242188 28.578125 -43.484375 L 28.578125 -35.859375 L 27.984375 -35.859375 L 27.984375 -36.9375 C 27.984375 -37.90625 27.648438 -38.734375 26.984375 -39.421875 C 26.316406 -40.109375 25.519531 -40.472656 24.59375 -40.515625 L 12.234375 -40.515625 L 12.234375 -21.796875 L 22.46875 -21.796875 C 23.28125 -21.835938 23.96875 -22.140625 24.53125 -22.703125 C 25.09375 -23.273438 25.375 -23.984375 25.375 -24.828125 L 25.375 -25.671875 L 25.984375 -25.671875 L 25.984375 -16.109375 L 25.375 -16.109375 L 25.375 -17.015625 C 25.375 -17.828125 25.097656 -18.515625 24.546875 -19.078125 C 24.003906 -19.640625 23.332031 -19.941406 22.53125 -19.984375 L 12.234375 -19.984375 L 12.234375 -1.875 L 20.890625 -1.875 C 23.878906 -1.875 26.160156 -2.539062 27.734375 -3.875 C 29.304688 -5.207031 30.617188 -7.1875 31.671875 -9.8125 L 32.28125 -9.8125 L 28.765625 0 L 3.640625 0 L 3.640625 -0.609375 Z M 4.421875 -0.609375 "/></g><g id="glyph-0-3"><path d="M 47.125 -41.78125 C 46.113281 -41.78125 45.242188 -41.425781 44.515625 -40.71875 C 43.785156 -40.019531 43.398438 -39.164062 43.359375 -38.15625 L 43.359375 -6.90625 C 43.359375 -4.5625 43.5 -2.34375 43.78125 -0.25 L 43.90625 0.84375 L 43.359375 0.84375 L 10.359375 -34.40625 L 10.359375 -4.234375 C 10.398438 -2.828125 11.023438 -1.78125 12.234375 -1.09375 C 12.796875 -0.769531 13.398438 -0.609375 14.046875 -0.609375 L 15.203125 -0.609375 L 15.203125 0 L 2.71875 0 L 2.71875 -0.609375 L 3.875 -0.609375 C 4.882812 -0.609375 5.753906 -0.957031 6.484375 -1.65625 C 7.210938 -2.363281 7.578125 -3.242188 7.578125 -4.296875 L 7.578125 -35.734375 C 7.578125 -38.191406 7.429688 -40.390625 7.140625 -42.328125 L 7.03125 -43.296875 L 7.625 -43.296875 L 40.640625 -8.0625 L 40.640625 -38.09375 C 40.597656 -39.144531 40.210938 -40.019531 39.484375 -40.71875 C 38.753906 -41.425781 37.882812 -41.78125 36.875 -41.78125 L 35.734375 -41.78125 L 35.734375 -42.390625 L 48.203125 -42.390625 L 48.203125 -41.78125 Z M 47.125 -41.78125 "/></g><g id="glyph-0-4"><path d="M 16.109375 -0.609375 L 16.890625 -0.609375 L 16.890625 0 L 3.640625 0 L 3.640625 -0.609375 L 4.421875 -0.609375 C 5.472656 -0.609375 6.367188 -0.976562 7.109375 -1.71875 C 7.859375 -2.46875 8.253906 -3.367188 8.296875 -4.421875 L 8.296875 -38.03125 C 8.253906 -39.082031 7.859375 -39.96875 7.109375 -40.6875 C 6.367188 -41.414062 5.472656 -41.78125 4.421875 -41.78125 L 3.640625 -41.78125 L 3.640625 -42.390625 L 16.890625 -42.390625 L 16.890625 -41.78125 L 16.109375 -41.78125 C 15.054688 -41.78125 14.15625 -41.414062 13.40625 -40.6875 C 12.664062 -39.96875 12.273438 -39.082031 12.234375 -38.03125 L 12.234375 -4.421875 C 12.234375 -3.367188 12.613281 -2.46875 13.375 -1.71875 C 14.144531 -0.976562 15.054688 -0.609375 16.109375 -0.609375 Z M 40.453125 0 L 37.859375 0 C 33.734375 0 30.703125 -1.148438 28.765625 -3.453125 L 14.171875 -21.078125 L 28.46875 -39 C 28.789062 -39.40625 28.953125 -39.769531 28.953125 -40.09375 C 28.953125 -40.414062 28.890625 -40.695312 28.765625 -40.9375 C 28.441406 -41.539062 27.859375 -41.84375 27.015625 -41.84375 L 26.40625 -41.84375 L 26.40625 -42.390625 L 39.1875 -42.390625 L 39.1875 -41.84375 L 38.9375 -41.84375 C 36.269531 -41.84375 34.09375 -40.894531 32.40625 -39 L 18.171875 -22.53125 L 34.703125 -3.09375 C 36.316406 -1.476562 38.234375 -0.648438 40.453125 -0.609375 Z M 40.453125 0 "/></g><g id="glyph-0-5"><path d="M 10.265625 -37.140625 C 14.285156 -41.203125 19.523438 -43.234375 25.984375 -43.234375 C 32.441406 -43.234375 37.6875 -41.203125 41.71875 -37.140625 C 45.757812 -33.085938 47.78125 -27.769531 47.78125 -21.1875 C 47.78125 -14.613281 45.757812 -9.296875 41.71875 -5.234375 C 37.6875 -1.179688 32.441406 0.84375 25.984375 0.84375 C 19.523438 0.84375 14.285156 -1.179688 10.265625 -5.234375 C 6.242188 -9.296875 4.234375 -14.613281 4.234375 -21.1875 C 4.234375 -27.769531 6.242188 -33.085938 10.265625 -37.140625 Z M 13.59375 -6.53125 C 16.726562 -2.820312 20.867188 -0.96875 26.015625 -0.96875 C 31.160156 -0.96875 35.296875 -2.820312 38.421875 -6.53125 C 41.554688 -10.25 43.125 -15.140625 43.125 -21.203125 C 43.125 -25.191406 42.414062 -28.71875 41 -31.78125 C 39.582031 -34.851562 37.570312 -37.226562 34.96875 -38.90625 C 32.363281 -40.582031 29.367188 -41.421875 25.984375 -41.421875 C 20.859375 -41.421875 16.726562 -39.5625 13.59375 -35.84375 C 10.46875 -32.132812 8.90625 -27.25 8.90625 -21.1875 C 8.90625 -15.132812 10.46875 -10.25 13.59375 -6.53125 Z M 13.59375 -6.53125 "/></g><g id="glyph-0-6"><path d="M 4.421875 -0.609375 C 5.472656 -0.609375 6.367188 -0.976562 7.109375 -1.71875 C 7.859375 -2.46875 8.253906 -3.367188 8.296875 -4.421875 L 8.296875 -37.96875 C 8.253906 -39.019531 7.859375 -39.914062 7.109375 -40.65625 C 6.367188 -41.40625 5.472656 -41.78125 4.421875 -41.78125 L 3.640625 -41.78125 L 3.640625 -42.390625 L 16.890625 -42.390625 L 16.890625 -41.78125 L 16.109375 -41.78125 C 14.648438 -41.78125 13.539062 -41.15625 12.78125 -39.90625 C 12.414062 -39.300781 12.234375 -38.65625 12.234375 -37.96875 L 12.234375 -1.875 L 20.890625 -1.875 C 23.878906 -1.875 26.160156 -2.539062 27.734375 -3.875 C 29.304688 -5.207031 30.617188 -7.1875 31.671875 -9.8125 L 32.28125 -9.8125 L 28.765625 0 L 3.640625 0 L 3.640625 -0.609375 Z M 4.421875 -0.609375 "/></g><g id="glyph-0-7"><path d="M 43.359375 -0.609375 L 43.84375 -0.609375 L 43.84375 0 L 30.21875 0 L 30.21875 -0.609375 L 30.765625 -0.609375 C 31.617188 -0.609375 32.253906 -0.878906 32.671875 -1.421875 C 33.097656 -1.960938 33.3125 -2.472656 33.3125 -2.953125 C 33.3125 -3.441406 33.226562 -3.929688 33.0625 -4.421875 L 29.1875 -14.71875 L 12.84375 -14.71875 L 8.78125 -4.359375 C 8.625 -3.878906 8.546875 -3.40625 8.546875 -2.9375 C 8.546875 -2.46875 8.753906 -1.960938 9.171875 -1.421875 C 9.597656 -0.878906 10.234375 -0.609375 11.078125 -0.609375 L 11.625 -0.609375 L 11.625 0 L -0.546875 0 L -0.546875 -0.609375 L 0 -0.609375 C 1.007812 -0.609375 2 -0.929688 2.96875 -1.578125 C 3.9375 -2.222656 4.722656 -3.171875 5.328125 -4.421875 L 19.015625 -37 C 20.515625 -40.269531 21.265625 -42.347656 21.265625 -43.234375 L 21.796875 -43.234375 L 38.03125 -4.421875 C 38.601562 -3.171875 39.375 -2.222656 40.34375 -1.578125 C 41.3125 -0.929688 42.316406 -0.609375 43.359375 -0.609375 Z M 13.5625 -16.53125 L 28.46875 -16.53125 L 21.203125 -35.96875 Z M 13.5625 -16.53125 "/></g><g id="glyph-0-8"><path d="M 40.765625 -41.78125 L 39.90625 -41.78125 C 38.695312 -41.78125 37.554688 -41.445312 36.484375 -40.78125 C 35.421875 -40.125 34.523438 -39.289062 33.796875 -38.28125 L 21.859375 -18.890625 L 21.859375 -4.421875 C 21.859375 -3.367188 22.234375 -2.46875 22.984375 -1.71875 C 23.734375 -0.976562 24.648438 -0.609375 25.734375 -0.609375 L 26.46875 -0.609375 L 26.46875 0 L 13.265625 0 L 13.265625 -0.609375 L 14.046875 -0.609375 C 15.097656 -0.609375 16 -0.96875 16.75 -1.6875 C 17.5 -2.414062 17.890625 -3.304688 17.921875 -4.359375 L 17.921875 -18.953125 L 6.359375 -38.28125 C 5.753906 -39.25 4.894531 -40.070312 3.78125 -40.75 C 2.675781 -41.4375 1.519531 -41.78125 0.3125 -41.78125 L -0.546875 -41.78125 L -0.546875 -42.390625 L 14.359375 -42.390625 L 14.359375 -41.78125 L 13.5625 -41.78125 C 12.675781 -41.78125 11.992188 -41.378906 11.515625 -40.578125 C 11.265625 -40.128906 11.140625 -39.691406 11.140625 -39.265625 C 11.140625 -38.847656 11.242188 -38.4375 11.453125 -38.03125 L 20.53125 -21.078125 L 30.21875 -38.09375 C 30.425781 -38.5 30.53125 -38.898438 30.53125 -39.296875 C 30.53125 -39.703125 30.382812 -40.128906 30.09375 -40.578125 C 29.613281 -41.378906 28.929688 -41.78125 28.046875 -41.78125 L 27.3125 -41.78125 L 27.3125 -42.390625 L 40.765625 -42.390625 Z M 40.765625 -41.78125 "/></g><g id="glyph-1-0"/><g id="glyph-1-1"><path d="M 24.015625 -42.125 C 30.429688 -42.125 35.632812 -40.1875 39.625 -36.3125 C 43.625 -32.445312 45.625 -27.363281 45.625 -21.0625 C 45.625 -14.757812 43.625 -9.671875 39.625 -5.796875 C 35.632812 -1.929688 30.429688 0 24.015625 0 L 3.609375 0 L 3.609375 -0.609375 L 4.390625 -0.609375 C 5.429688 -0.609375 6.320312 -0.976562 7.0625 -1.71875 C 7.8125 -2.457031 8.207031 -3.347656 8.25 -4.390625 L 8.25 -38.09375 C 8.25 -39.0625 7.851562 -39.875 7.0625 -40.53125 C 6.28125 -41.195312 5.390625 -41.53125 4.390625 -41.53125 L 3.671875 -41.53125 L 3.609375 -42.125 Z M 12.15625 -40.328125 L 12.15625 -1.8125 L 24.015625 -1.8125 C 27.390625 -1.8125 30.367188 -2.613281 32.953125 -4.21875 C 35.535156 -5.820312 37.539062 -8.078125 38.96875 -10.984375 C 40.394531 -13.890625 41.109375 -17.25 41.109375 -21.0625 C 41.109375 -26.84375 39.53125 -31.5 36.375 -35.03125 C 33.226562 -38.5625 29.109375 -40.328125 24.015625 -40.328125 Z M 12.15625 -40.328125 "/></g><g id="glyph-1-2"><path d="M 4.390625 -0.609375 C 5.429688 -0.609375 6.320312 -0.976562 7.0625 -1.71875 C 7.8125 -2.457031 8.207031 -3.347656 8.25 -4.390625 L 8.25 -38.09375 C 8.125 -39.0625 7.695312 -39.875 6.96875 -40.53125 C 6.25 -41.195312 5.390625 -41.53125 4.390625 -41.53125 L 3.671875 -41.53125 L 3.609375 -42.125 L 21.25 -42.125 C 22.488281 -42.125 23.835938 -42.242188 25.296875 -42.484375 C 26.765625 -42.734375 27.800781 -42.976562 28.40625 -43.21875 L 28.40625 -35.625 L 27.8125 -35.625 L 27.8125 -36.71875 C 27.8125 -37.675781 27.476562 -38.492188 26.8125 -39.171875 C 26.15625 -39.859375 25.363281 -40.222656 24.4375 -40.265625 L 12.15625 -40.265625 L 12.15625 -21.671875 L 22.328125 -21.671875 C 23.128906 -21.710938 23.8125 -22.007812 24.375 -22.5625 C 24.9375 -23.125 25.21875 -23.828125 25.21875 -24.671875 L 25.21875 -25.515625 L 25.828125 -25.515625 L 25.828125 -16.015625 L 25.21875 -16.015625 L 25.21875 -16.90625 C 25.21875 -17.707031 24.945312 -18.390625 24.40625 -18.953125 C 23.863281 -19.515625 23.191406 -19.816406 22.390625 -19.859375 L 12.15625 -19.859375 L 12.15625 -1.859375 L 20.765625 -1.859375 C 23.734375 -1.859375 26 -2.519531 27.5625 -3.84375 C 29.125 -5.175781 30.429688 -7.144531 31.484375 -9.75 L 32.078125 -9.75 L 28.59375 0 L 3.609375 0 L 3.609375 -0.609375 Z M 4.390625 -0.609375 "/></g><g id="glyph-1-3"><path d="M 46.828125 -41.53125 C 45.828125 -41.53125 44.960938 -41.175781 44.234375 -40.46875 C 43.515625 -39.769531 43.132812 -38.921875 43.09375 -37.921875 L 43.09375 -6.859375 C 43.09375 -4.535156 43.234375 -2.328125 43.515625 -0.234375 L 43.640625 0.84375 L 43.09375 0.84375 L 10.296875 -34.1875 L 10.296875 -4.21875 C 10.335938 -2.8125 10.957031 -1.765625 12.15625 -1.078125 C 12.71875 -0.765625 13.320312 -0.609375 13.96875 -0.609375 L 15.109375 -0.609375 L 15.109375 0 L 2.703125 0 L 2.703125 -0.609375 L 3.859375 -0.609375 C 4.859375 -0.609375 5.71875 -0.957031 6.4375 -1.65625 C 7.164062 -2.351562 7.53125 -3.222656 7.53125 -4.265625 L 7.53125 -35.515625 C 7.53125 -37.960938 7.390625 -40.148438 7.109375 -42.078125 L 6.984375 -43.03125 L 7.578125 -43.03125 L 40.390625 -8 L 40.390625 -37.859375 C 40.347656 -38.898438 39.960938 -39.769531 39.234375 -40.46875 C 38.515625 -41.175781 37.65625 -41.53125 36.65625 -41.53125 L 35.515625 -41.53125 L 35.515625 -42.125 L 47.90625 -42.125 L 47.90625 -41.53125 Z M 46.828125 -41.53125 "/></g><g id="glyph-1-4"><path d="M 35.453125 -36.78125 C 35.453125 -37.738281 35.109375 -38.566406 34.421875 -39.265625 C 33.742188 -39.972656 32.941406 -40.347656 32.015625 -40.390625 L 20.578125 -40.390625 L 20.578125 -4.328125 C 20.617188 -3.285156 21.007812 -2.40625 21.75 -1.6875 C 22.5 -0.96875 23.394531 -0.609375 24.4375 -0.609375 L 25.21875 -0.609375 L 25.21875 0 L 12.03125 0 L 12.03125 -0.609375 L 12.8125 -0.609375 C 13.863281 -0.609375 14.757812 -0.96875 15.5 -1.6875 C 16.238281 -2.40625 16.628906 -3.265625 16.671875 -4.265625 L 16.671875 -40.390625 L 5.234375 -40.390625 C 4.273438 -40.347656 3.460938 -39.972656 2.796875 -39.265625 C 2.140625 -38.566406 1.8125 -37.738281 1.8125 -36.78125 L 1.8125 -35.75 L 1.203125 -35.6875 L 1.203125 -43.28125 C 1.804688 -43.03125 2.847656 -42.785156 4.328125 -42.546875 C 5.816406 -42.304688 7.179688 -42.1875 8.421875 -42.1875 L 28.765625 -42.1875 C 30.734375 -42.1875 32.367188 -42.335938 33.671875 -42.640625 C 34.972656 -42.941406 35.765625 -43.15625 36.046875 -43.28125 L 36.046875 -35.6875 L 35.453125 -35.75 Z M 35.453125 -36.78125 "/></g><g id="glyph-1-5"><path d="M 11.9375 -46.796875 C 11.4375 -46.296875 10.828125 -46.046875 10.109375 -46.046875 C 9.390625 -46.046875 8.78125 -46.296875 8.28125 -46.796875 C 7.78125 -47.296875 7.53125 -47.90625 7.53125 -48.625 C 7.53125 -49.351562 7.78125 -49.96875 8.28125 -50.46875 C 8.78125 -50.96875 9.390625 -51.21875 10.109375 -51.21875 C 10.828125 -51.21875 11.4375 -50.96875 11.9375 -50.46875 C 12.445312 -49.96875 12.703125 -49.351562 12.703125 -48.625 C 12.703125 -47.90625 12.445312 -47.296875 11.9375 -46.796875 Z M 4.390625 -0.609375 C 5.429688 -0.609375 6.320312 -0.976562 7.0625 -1.71875 C 7.8125 -2.457031 8.207031 -3.347656 8.25 -4.390625 L 8.25 -37.796875 C 8.207031 -38.835938 7.8125 -39.71875 7.0625 -40.4375 C 6.320312 -41.164062 5.429688 -41.53125 4.390625 -41.53125 L 3.609375 -41.53125 L 3.609375 -42.125 L 16.796875 -42.125 L 16.796875 -41.53125 L 16.015625 -41.53125 C 14.960938 -41.53125 14.066406 -41.164062 13.328125 -40.4375 C 12.585938 -39.71875 12.195312 -38.835938 12.15625 -37.796875 L 12.15625 -4.390625 C 12.15625 -3.347656 12.535156 -2.457031 13.296875 -1.71875 C 14.054688 -0.976562 14.960938 -0.609375 16.015625 -0.609375 L 16.796875 -0.609375 L 16.796875 0 L 3.609375 0 L 3.609375 -0.609375 Z M 4.390625 -0.609375 "/></g><g id="glyph-1-6"><path d="M 54.171875 -0.609375 L 55.125 -0.609375 L 55.125 0 L 42.078125 0 L 42.078125 -0.546875 L 42.96875 -0.546875 C 43.65625 -0.546875 44.238281 -0.816406 44.71875 -1.359375 C 45.195312 -1.898438 45.398438 -2.488281 45.328125 -3.125 L 42.609375 -33.40625 L 29.96875 -5.296875 C 28.84375 -2.847656 28.160156 -0.800781 27.921875 0.84375 L 27.328125 0.84375 L 11.921875 -32.5625 L 9.328125 -3.125 C 9.242188 -2.488281 9.441406 -1.898438 9.921875 -1.359375 C 10.410156 -0.816406 10.972656 -0.546875 11.609375 -0.546875 L 12.578125 -0.546875 L 12.578125 0 L 0.90625 0 L 0.90625 -0.609375 L 1.859375 -0.609375 C 2.984375 -0.609375 3.957031 -0.945312 4.78125 -1.625 C 5.601562 -2.300781 6.097656 -3.222656 6.265625 -4.390625 L 10.78125 -42.96875 L 11.375 -42.96875 L 28.171875 -6.6875 L 44.59375 -42.96875 L 45.140625 -42.96875 L 49.78125 -4.390625 C 49.976562 -2.785156 50.78125 -1.660156 52.1875 -1.015625 C 52.78125 -0.742188 53.441406 -0.609375 54.171875 -0.609375 Z M 54.171875 -0.609375 "/></g></g><clipPath id="clip-0"><path d="M 106 29 L 256 29 L 256 179 L 106 179 Z M 106 29 " clip-rule="nonzero"/></clipPath><clipPath id="clip-1"><path d="M 180.945312 28.257812 L 256.78125 104.09375 L 180.945312 179.929688 L 105.105469 104.09375 Z M 180.945312 28.257812 " clip-rule="nonzero"/></clipPath><clipPath id="clip-2"><path d="M 180.945312 28.257812 L 256.78125 104.09375 L 180.945312 179.929688 L 105.105469 104.09375 Z M 180.945312 28.257812 " clip-rule="nonzero"/></clipPath></defs><rect x="-37.5" width="450" fill="rgb(100%, 100%, 100%)" y="-37.499999" height="449.999989" fill-opacity="1"/><rect x="-37.5" width="450" fill="rgb(100%, 100%, 100%)" y="-37.499999" height="449.999989" fill-opacity="1"/><rect x="-37.5" width="450" fill="rgb(0%, 29.019165%, 67.83905%)" y="-37.499999" height="449.999989" fill-opacity="1"/><g fill="rgb(100%, 100%, 100%)" fill-opacity="1"><use x="22.586053" y="256.931292" xmlns:xlink="http://www.w3.org/1999/xlink" xlink:href="#glyph-0-1" xlink:type="simple" xlink:actuate="onLoad" xlink:show="embed"/></g><g fill="rgb(100%, 100%, 100%)" fill-opacity="1"><use x="38.570427" y="256.931292" xmlns:xlink="http://www.w3.org/1999/xlink" xlink:href="#glyph-0-2" xlink:type="simple" xlink:actuate="onLoad" xlink:show="embed"/></g><g fill="rgb(100%, 100%, 100%)" fill-opacity="1"><use x="74.362972" y="256.931292" xmlns:xlink="http://www.w3.org/1999/xlink" xlink:href="#glyph-0-3" xlink:type="simple" xlink:actuate="onLoad" xlink:show="embed"/></g><g fill="rgb(100%, 100%, 100%)" fill-opacity="1"><use x="126.14401" y="256.931292" xmlns:xlink="http://www.w3.org/1999/xlink" xlink:href="#glyph-0-4" xlink:type="simple" xlink:actuate="onLoad" xlink:show="embed"/></g><g fill="rgb(100%, 100%, 100%)" fill-opacity="1"><use x="166.781554" y="256.931292" xmlns:xlink="http://www.w3.org/1999/xlink" xlink:href="#glyph-0-5" xlink:type="simple" xlink:actuate="onLoad" xlink:show="embed"/></g><g fill="rgb(100%, 100%, 100%)" fill-opacity="1"><use x="218.3809" y="256.931292" xmlns:xlink="http://www.w3.org/1999/xlink" xlink:href="#glyph-0-6" xlink:type="simple" xlink:actuate="onLoad" xlink:show="embed"/></g><g fill="rgb(100%, 100%, 100%)" fill-opacity="1"><use x="253.265007" y="256.931292" xmlns:xlink="http://www.w3.org/1999/xlink" xlink:href="#glyph-0-7" xlink:type="simple" xlink:actuate="onLoad" xlink:show="embed"/></g><g fill="rgb(100%, 100%, 100%)" fill-opacity="1"><use x="297.23348" y="256.931292" xmlns:xlink="http://www.w3.org/1999/xlink" xlink:href="#glyph-0-8" xlink:type="simple" xlink:actuate="onLoad" xlink:show="embed"/></g><g fill="rgb(100%, 100%, 100%)" fill-opacity="1"><use x="22.586053" y="304.931289" xmlns:xlink="http://www.w3.org/1999/xlink" xlink:href="#glyph-0-1" xlink:type="simple" xlink:actuate="onLoad" xlink:show="embed"/></g><g fill="rgb(100%, 100%, 100%)" fill-opacity="1"><use x="38.574667" y="304.931289" xmlns:xlink="http://www.w3.org/1999/xlink" xlink:href="#glyph-0-1" xlink:type="simple" xlink:actuate="onLoad" xlink:show="embed"/></g><g clip-path="url(#clip-0)"><g clip-path="url(#clip-1)"><g clip-path="url(#clip-2)"><path fill="rgb(100%, 100%, 100%)" d="M 254.945312 102.257812 L 182.777344 30.09375 C 181.792969 29.105469 180.1875 29.105469 179.203125 30.089844 L 106.9375 102.355469 C 105.953125 103.34375 105.953125 104.945312 106.9375 105.933594 L 179.105469 178.101562 C 180.089844 179.085938 181.695312 179.085938 182.679688 178.101562 L 254.945312 105.835938 C 255.933594 104.851562 255.933594 103.246094 254.945312 102.257812 Z M 130.410156 105.933594 L 165.578125 141.101562 L 157.417969 149.261719 L 112.300781 104.144531 L 180.992188 35.457031 L 189.152344 43.617188 L 130.410156 102.355469 C 129.425781 103.34375 129.425781 104.945312 130.410156 105.933594 Z M 153.886719 105.933594 L 177.316406 129.363281 L 169.15625 137.523438 L 135.777344 104.144531 L 192.726562 47.195312 L 200.886719 55.355469 L 153.886719 102.355469 C 152.898438 103.34375 152.898438 104.945312 153.886719 105.933594 Z M 159.25 104.144531 L 180.992188 82.40625 L 202.632812 104.046875 L 180.894531 125.789062 Z M 208 102.257812 L 184.566406 78.828125 L 192.726562 70.667969 L 226.105469 104.046875 L 169.15625 161 L 160.996094 152.839844 L 208 105.835938 C 208.984375 104.851562 208.984375 103.246094 208 102.257812 Z M 231.472656 102.261719 L 196.304688 67.089844 L 204.464844 58.929688 L 249.582031 104.046875 L 180.894531 172.734375 L 172.734375 164.574219 L 231.472656 105.835938 C 232.457031 104.851562 232.457031 103.246094 231.472656 102.261719 Z M 231.472656 102.261719 " fill-opacity="1" fill-rule="nonzero"/></g></g></g><g fill="rgb(100%, 100%, 100%)" fill-opacity="1"><use x="43.857483" y="318.854333" xmlns:xlink="http://www.w3.org/1999/xlink" xlink:href="#glyph-1-1" xlink:type="simple" xlink:actuate="onLoad" xlink:show="embed"/></g><g fill="rgb(100%, 100%, 100%)" fill-opacity="1"><use x="93.271597" y="318.854333" xmlns:xlink="http://www.w3.org/1999/xlink" xlink:href="#glyph-1-2" xlink:type="simple" xlink:actuate="onLoad" xlink:show="embed"/></g><g fill="rgb(100%, 100%, 100%)" fill-opacity="1"><use x="128.842585" y="318.854333" xmlns:xlink="http://www.w3.org/1999/xlink" xlink:href="#glyph-1-3" xlink:type="simple" xlink:actuate="onLoad" xlink:show="embed"/></g><g fill="rgb(100%, 100%, 100%)" fill-opacity="1"><use x="180.303068" y="318.854333" xmlns:xlink="http://www.w3.org/1999/xlink" xlink:href="#glyph-1-2" xlink:type="simple" xlink:actuate="onLoad" xlink:show="embed"/></g><g fill="rgb(100%, 100%, 100%)" fill-opacity="1"><use x="215.87405" y="318.854333" xmlns:xlink="http://www.w3.org/1999/xlink" xlink:href="#glyph-1-4" xlink:type="simple" xlink:actuate="onLoad" xlink:show="embed"/></g><g fill="rgb(100%, 100%, 100%)" fill-opacity="1"><use x="253.912721" y="318.854333" xmlns:xlink="http://www.w3.org/1999/xlink" xlink:href="#glyph-1-5" xlink:type="simple" xlink:actuate="onLoad" xlink:show="embed"/></g><g fill="rgb(100%, 100%, 100%)" fill-opacity="1"><use x="275.098892" y="318.854333" xmlns:xlink="http://www.w3.org/1999/xlink" xlink:href="#glyph-1-6" xlink:type="simple" xlink:actuate="onLoad" xlink:show="embed"/></g></svg>