<svg width="249" height="32" viewBox="0 0 249 32" fill="none" xmlns="http://www.w3.org/2000/svg">
<rect x="0.5" y="0.5" width="248" height="31" rx="5.5" fill="white"/>
<rect x="0.5" y="0.5" width="248" height="31" rx="5.5" stroke="#DEE3ED"/>
<path d="M68.1094 22V16.672L68.5414 17.904L63.6934 10.72H66.0774L69.4054 15.84H68.9574L72.2854 10.72H74.5894L69.7574 17.904L70.1734 16.672V22H68.1094ZM77.8358 22.16C76.4811 22.16 75.4198 21.7867 74.6518 21.04C73.8838 20.2933 73.4998 19.2693 73.4998 17.968C73.4998 17.1253 73.6651 16.3893 73.9958 15.76C74.3264 15.1307 74.7851 14.64 75.3718 14.288C75.9691 13.936 76.6624 13.76 77.4518 13.76C78.2304 13.76 78.8811 13.9253 79.4038 14.256C79.9264 14.5867 80.3211 15.0507 80.5878 15.648C80.8651 16.2453 81.0038 16.944 81.0038 17.744V18.272H75.1158V17.216H79.5798L79.3078 17.44C79.3078 16.6933 79.1478 16.1227 78.8278 15.728C78.5184 15.3333 78.0651 15.136 77.4678 15.136C76.8064 15.136 76.2944 15.3707 75.9318 15.84C75.5798 16.3093 75.4038 16.9653 75.4038 17.808V18.016C75.4038 18.8907 75.6171 19.5467 76.0438 19.984C76.4811 20.4107 77.0944 20.624 77.8838 20.624C78.3424 20.624 78.7691 20.5653 79.1638 20.448C79.5691 20.32 79.9531 20.1173 80.3158 19.84L80.9078 21.184C80.5238 21.4933 80.0651 21.7333 79.5318 21.904C78.9984 22.0747 78.4331 22.16 77.8358 22.16ZM82.6974 22V15.936C82.6974 15.6053 82.6867 15.2693 82.6654 14.928C82.644 14.5867 82.612 14.2507 82.5694 13.92H84.5054L84.6654 15.52H84.4734C84.7294 14.9547 85.108 14.5227 85.6094 14.224C86.1107 13.9147 86.692 13.76 87.3534 13.76C88.3027 13.76 89.0174 14.0267 89.4974 14.56C89.9774 15.0933 90.2174 15.9253 90.2174 17.056V22H88.2174V17.152C88.2174 16.5013 88.0894 16.0373 87.8334 15.76C87.588 15.472 87.2147 15.328 86.7134 15.328C86.0947 15.328 85.604 15.52 85.2414 15.904C84.8787 16.288 84.6974 16.8 84.6974 17.44V22H82.6974ZM92.338 22V13.92H94.338V22H92.338ZM92.226 12.4V10.448H94.45V12.4H92.226ZM99.6459 22.16C98.9419 22.16 98.3179 21.9947 97.7739 21.664C97.2405 21.3227 96.8245 20.8373 96.5259 20.208C96.2272 19.5787 96.0779 18.8267 96.0779 17.952C96.0779 17.0773 96.2272 16.3307 96.5259 15.712C96.8245 15.0827 97.2405 14.6027 97.7739 14.272C98.3179 13.9307 98.9419 13.76 99.6459 13.76C100.318 13.76 100.91 13.9253 101.422 14.256C101.945 14.576 102.291 15.0133 102.462 15.568H102.254V10.224H104.254V22H102.286V20.288H102.478C102.307 20.864 101.961 21.3227 101.438 21.664C100.926 21.9947 100.329 22.16 99.6459 22.16ZM100.206 20.624C100.835 20.624 101.342 20.4053 101.726 19.968C102.11 19.52 102.302 18.848 102.302 17.952C102.302 17.056 102.11 16.3893 101.726 15.952C101.342 15.5147 100.835 15.296 100.206 15.296C99.5765 15.296 99.0645 15.5147 98.6699 15.952C98.2859 16.3893 98.0939 17.056 98.0939 17.952C98.0939 18.848 98.2859 19.52 98.6699 19.968C99.0645 20.4053 99.5765 20.624 100.206 20.624ZM110.336 22.16C108.981 22.16 107.92 21.7867 107.152 21.04C106.384 20.2933 106 19.2693 106 17.968C106 17.1253 106.165 16.3893 106.496 15.76C106.826 15.1307 107.285 14.64 107.872 14.288C108.469 13.936 109.162 13.76 109.952 13.76C110.73 13.76 111.381 13.9253 111.904 14.256C112.426 14.5867 112.821 15.0507 113.088 15.648C113.365 16.2453 113.504 16.944 113.504 17.744V18.272H107.616V17.216H112.08L111.808 17.44C111.808 16.6933 111.648 16.1227 111.328 15.728C111.018 15.3333 110.565 15.136 109.968 15.136C109.306 15.136 108.794 15.3707 108.432 15.84C108.08 16.3093 107.904 16.9653 107.904 17.808V18.016C107.904 18.8907 108.117 19.5467 108.544 19.984C108.981 20.4107 109.594 20.624 110.384 20.624C110.842 20.624 111.269 20.5653 111.664 20.448C112.069 20.32 112.453 20.1173 112.816 19.84L113.408 21.184C113.024 21.4933 112.565 21.7333 112.032 21.904C111.498 22.0747 110.933 22.16 110.336 22.16ZM115.197 22V15.936C115.197 15.6053 115.187 15.2693 115.165 14.928C115.144 14.5867 115.112 14.2507 115.069 13.92H117.005L117.165 15.52H116.973C117.229 14.9547 117.608 14.5227 118.109 14.224C118.611 13.9147 119.192 13.76 119.853 13.76C120.803 13.76 121.517 14.0267 121.997 14.56C122.477 15.0933 122.717 15.9253 122.717 17.056V22H120.717V17.152C120.717 16.5013 120.589 16.0373 120.333 15.76C120.088 15.472 119.715 15.328 119.213 15.328C118.595 15.328 118.104 15.52 117.741 15.904C117.379 16.288 117.197 16.8 117.197 17.44V22H115.197ZM129.389 22V10.72H131.453V22H129.389ZM129.437 9.296V7.44H131.389V9.296H129.437ZM133.456 22V20.688L138.512 14.944V15.424H133.456V13.92H140.32V15.232L135.216 21.024L135.2 20.496H140.496V22H133.456ZM142.197 22V13.92H144.197V22H142.197ZM142.085 12.4V10.448H144.309V12.4H142.085ZM146.369 22V15.936C146.369 15.6053 146.359 15.2693 146.337 14.928C146.316 14.5867 146.284 14.2507 146.241 13.92H148.177L148.337 15.52H148.145C148.401 14.9547 148.78 14.5227 149.281 14.224C149.783 13.9147 150.364 13.76 151.025 13.76C151.975 13.76 152.689 14.0267 153.169 14.56C153.649 15.0933 153.889 15.9253 153.889 17.056V22H151.889V17.152C151.889 16.5013 151.761 16.0373 151.505 15.76C151.26 15.472 150.887 15.328 150.385 15.328C149.767 15.328 149.276 15.52 148.913 15.904C148.551 16.288 148.369 16.8 148.369 17.44V22H146.369ZM164.209 22L159.184 10.72H161.409L165.457 20.192H164.785L168.833 10.72H170.977L165.953 22H164.209ZM174.836 22.16C173.481 22.16 172.42 21.7867 171.652 21.04C170.884 20.2933 170.5 19.2693 170.5 17.968C170.5 17.1253 170.665 16.3893 170.996 15.76C171.326 15.1307 171.785 14.64 172.372 14.288C172.969 13.936 173.662 13.76 174.452 13.76C175.23 13.76 175.881 13.9253 176.404 14.256C176.926 14.5867 177.321 15.0507 177.588 15.648C177.865 16.2453 178.004 16.944 178.004 17.744V18.272H172.116V17.216H176.58L176.308 17.44C176.308 16.6933 176.148 16.1227 175.828 15.728C175.518 15.3333 175.065 15.136 174.468 15.136C173.806 15.136 173.294 15.3707 172.932 15.84C172.58 16.3093 172.404 16.9653 172.404 17.808V18.016C172.404 18.8907 172.617 19.5467 173.044 19.984C173.481 20.4107 174.094 20.624 174.884 20.624C175.342 20.624 175.769 20.5653 176.164 20.448C176.569 20.32 176.953 20.1173 177.316 19.84L177.908 21.184C177.524 21.4933 177.065 21.7333 176.532 21.904C175.998 22.0747 175.433 22.16 174.836 22.16ZM179.681 22V15.984C179.681 15.6427 179.671 15.296 179.649 14.944C179.639 14.592 179.612 14.2507 179.569 13.92H181.505L181.729 16.128H181.409C181.516 15.5947 181.692 15.152 181.937 14.8C182.193 14.448 182.503 14.1867 182.865 14.016C183.228 13.8453 183.623 13.76 184.049 13.76C184.241 13.76 184.396 13.7707 184.513 13.792C184.631 13.8027 184.748 13.8293 184.865 13.872L184.849 15.632C184.647 15.5467 184.471 15.4933 184.321 15.472C184.183 15.4507 184.007 15.44 183.793 15.44C183.335 15.44 182.945 15.536 182.625 15.728C182.316 15.92 182.081 16.1867 181.921 16.528C181.772 16.8693 181.697 17.2587 181.697 17.696V22H179.681Z" fill="#222943"/>
</svg>
