<?xml version="1.0" encoding="UTF-8"?><svg xmlns="http://www.w3.org/2000/svg" xmlns:xlink="http://www.w3.org/1999/xlink" width="425.25" zoomAndPan="magnify" viewBox="0 0 425.25 55.5" height="55.5" preserveAspectRatio="xMidYMid meet" version="1.0"><defs><g><g id="glyph-0-0"/><g id="glyph-0-1"><path d="M 2.46875 -0.34375 C 3.050781 -0.34375 3.550781 -0.550781 3.96875 -0.96875 C 4.382812 -1.382812 4.609375 -1.882812 4.640625 -2.46875 L 4.640625 -21.40625 C 4.566406 -21.945312 4.328125 -22.40625 3.921875 -22.78125 C 3.515625 -23.15625 3.03125 -23.34375 2.46875 -23.34375 L 2.0625 -23.34375 L 2.03125 -23.671875 L 11.9375 -23.671875 C 12.632812 -23.671875 13.394531 -23.738281 14.21875 -23.875 C 15.039062 -24.007812 15.625 -24.144531 15.96875 -24.28125 L 15.96875 -20.03125 L 15.625 -20.03125 L 15.625 -20.640625 C 15.625 -21.179688 15.4375 -21.640625 15.0625 -22.015625 C 14.695312 -22.398438 14.253906 -22.601562 13.734375 -22.625 L 6.828125 -22.625 L 6.828125 -12.171875 L 12.546875 -12.171875 C 13.003906 -12.203125 13.390625 -12.375 13.703125 -12.6875 C 14.015625 -13 14.171875 -13.394531 14.171875 -13.875 L 14.171875 -14.34375 L 14.515625 -14.34375 L 14.515625 -9 L 14.171875 -9 L 14.171875 -9.5 C 14.171875 -9.957031 14.019531 -10.34375 13.71875 -10.65625 C 13.414062 -10.96875 13.035156 -11.132812 12.578125 -11.15625 L 6.828125 -11.15625 L 6.828125 -1.046875 L 11.671875 -1.046875 C 13.335938 -1.046875 14.609375 -1.414062 15.484375 -2.15625 C 16.367188 -2.90625 17.101562 -4.015625 17.6875 -5.484375 L 18.03125 -5.484375 L 16.0625 0 L 2.03125 0 L 2.03125 -0.34375 Z M 2.46875 -0.34375 "/></g><g id="glyph-0-2"><path d="M 26.3125 -23.34375 C 25.75 -23.34375 25.265625 -23.144531 24.859375 -22.75 C 24.453125 -22.351562 24.238281 -21.875 24.21875 -21.3125 L 24.21875 -3.859375 C 24.21875 -2.546875 24.296875 -1.304688 24.453125 -0.140625 L 24.53125 0.46875 L 24.21875 0.46875 L 5.78125 -19.21875 L 5.78125 -2.375 C 5.800781 -1.582031 6.148438 -0.992188 6.828125 -0.609375 C 7.148438 -0.429688 7.488281 -0.34375 7.84375 -0.34375 L 8.484375 -0.34375 L 8.484375 0 L 1.515625 0 L 1.515625 -0.34375 L 2.171875 -0.34375 C 2.734375 -0.34375 3.21875 -0.535156 3.625 -0.921875 C 4.03125 -1.316406 4.234375 -1.8125 4.234375 -2.40625 L 4.234375 -19.953125 C 4.234375 -21.328125 4.148438 -22.554688 3.984375 -23.640625 L 3.921875 -24.1875 L 4.265625 -24.1875 L 22.703125 -4.5 L 22.703125 -21.28125 C 22.679688 -21.863281 22.46875 -22.351562 22.0625 -22.75 C 21.65625 -23.144531 21.164062 -23.34375 20.59375 -23.34375 L 19.953125 -23.34375 L 19.953125 -23.671875 L 26.921875 -23.671875 L 26.921875 -23.34375 Z M 26.3125 -23.34375 "/></g><g id="glyph-0-3"><path d="M 9 -0.34375 L 9.4375 -0.34375 L 9.4375 0 L 2.03125 0 L 2.03125 -0.34375 L 2.46875 -0.34375 C 3.050781 -0.34375 3.550781 -0.550781 3.96875 -0.96875 C 4.382812 -1.382812 4.609375 -1.882812 4.640625 -2.46875 L 4.640625 -21.25 C 4.609375 -21.832031 4.382812 -22.328125 3.96875 -22.734375 C 3.550781 -23.140625 3.050781 -23.34375 2.46875 -23.34375 L 2.03125 -23.34375 L 2.03125 -23.671875 L 9.4375 -23.671875 L 9.4375 -23.34375 L 9 -23.34375 C 8.414062 -23.34375 7.910156 -23.140625 7.484375 -22.734375 C 7.066406 -22.328125 6.847656 -21.832031 6.828125 -21.25 L 6.828125 -2.46875 C 6.828125 -1.882812 7.039062 -1.382812 7.46875 -0.96875 C 7.90625 -0.550781 8.414062 -0.34375 9 -0.34375 Z M 22.59375 0 L 21.140625 0 C 18.835938 0 17.144531 -0.640625 16.0625 -1.921875 L 7.921875 -11.765625 L 15.90625 -21.78125 C 16.082031 -22.007812 16.171875 -22.210938 16.171875 -22.390625 C 16.171875 -22.578125 16.132812 -22.738281 16.0625 -22.875 C 15.882812 -23.207031 15.5625 -23.375 15.09375 -23.375 L 14.75 -23.375 L 14.75 -23.671875 L 21.890625 -23.671875 L 21.890625 -23.375 L 21.75 -23.375 C 20.257812 -23.375 19.039062 -22.84375 18.09375 -21.78125 L 10.140625 -12.578125 L 19.390625 -1.71875 C 20.285156 -0.820312 21.351562 -0.363281 22.59375 -0.34375 Z M 22.59375 0 "/></g><g id="glyph-0-4"><path d="M 5.734375 -20.75 C 7.972656 -23.019531 10.894531 -24.15625 14.5 -24.15625 C 18.113281 -24.15625 21.046875 -23.019531 23.296875 -20.75 C 25.554688 -18.488281 26.6875 -15.519531 26.6875 -11.84375 C 26.6875 -8.164062 25.554688 -5.191406 23.296875 -2.921875 C 21.046875 -0.660156 18.113281 0.46875 14.5 0.46875 C 10.894531 0.46875 7.972656 -0.660156 5.734375 -2.921875 C 3.492188 -5.191406 2.375 -8.164062 2.375 -11.84375 C 2.375 -15.519531 3.492188 -18.488281 5.734375 -20.75 Z M 7.59375 -3.65625 C 9.34375 -1.582031 11.65625 -0.546875 14.53125 -0.546875 C 17.40625 -0.546875 19.710938 -1.582031 21.453125 -3.65625 C 23.203125 -5.726562 24.078125 -8.457031 24.078125 -11.84375 C 24.078125 -14.070312 23.679688 -16.039062 22.890625 -17.75 C 22.109375 -19.46875 20.988281 -20.796875 19.53125 -21.734375 C 18.082031 -22.671875 16.410156 -23.140625 14.515625 -23.140625 C 11.648438 -23.140625 9.34375 -22.097656 7.59375 -20.015625 C 5.84375 -17.941406 4.96875 -15.210938 4.96875 -11.828125 C 4.96875 -8.453125 5.84375 -5.726562 7.59375 -3.65625 Z M 7.59375 -3.65625 "/></g><g id="glyph-0-5"><path d="M 2.46875 -0.34375 C 3.050781 -0.34375 3.550781 -0.550781 3.96875 -0.96875 C 4.382812 -1.382812 4.609375 -1.882812 4.640625 -2.46875 L 4.640625 -21.203125 C 4.609375 -21.796875 4.382812 -22.300781 3.96875 -22.71875 C 3.550781 -23.132812 3.050781 -23.34375 2.46875 -23.34375 L 2.03125 -23.34375 L 2.03125 -23.671875 L 9.4375 -23.671875 L 9.4375 -23.34375 L 9 -23.34375 C 8.1875 -23.34375 7.566406 -22.992188 7.140625 -22.296875 C 6.929688 -21.953125 6.828125 -21.585938 6.828125 -21.203125 L 6.828125 -1.046875 L 11.671875 -1.046875 C 13.335938 -1.046875 14.609375 -1.414062 15.484375 -2.15625 C 16.367188 -2.90625 17.101562 -4.015625 17.6875 -5.484375 L 18.03125 -5.484375 L 16.0625 0 L 2.03125 0 L 2.03125 -0.34375 Z M 2.46875 -0.34375 "/></g><g id="glyph-0-6"><path d="M 24.21875 -0.34375 L 24.484375 -0.34375 L 24.484375 0 L 16.875 0 L 16.875 -0.34375 L 17.1875 -0.34375 C 17.65625 -0.34375 18.007812 -0.492188 18.25 -0.796875 C 18.488281 -1.097656 18.609375 -1.382812 18.609375 -1.65625 C 18.609375 -1.925781 18.5625 -2.195312 18.46875 -2.46875 L 16.296875 -8.21875 L 7.171875 -8.21875 L 4.90625 -2.4375 C 4.8125 -2.164062 4.765625 -1.898438 4.765625 -1.640625 C 4.765625 -1.378906 4.882812 -1.097656 5.125 -0.796875 C 5.363281 -0.492188 5.71875 -0.34375 6.1875 -0.34375 L 6.5 -0.34375 L 6.5 0 L -0.3125 0 L -0.3125 -0.34375 L 0 -0.34375 C 0.5625 -0.34375 1.113281 -0.519531 1.65625 -0.875 C 2.195312 -1.238281 2.632812 -1.769531 2.96875 -2.46875 L 10.625 -20.671875 C 11.457031 -22.492188 11.875 -23.65625 11.875 -24.15625 L 12.171875 -24.15625 L 21.234375 -2.46875 C 21.554688 -1.769531 21.988281 -1.238281 22.53125 -0.875 C 23.070312 -0.519531 23.632812 -0.34375 24.21875 -0.34375 Z M 7.578125 -9.234375 L 15.890625 -9.234375 L 11.84375 -20.09375 Z M 7.578125 -9.234375 "/></g><g id="glyph-0-7"><path d="M 22.765625 -23.34375 L 22.296875 -23.34375 C 21.617188 -23.34375 20.976562 -23.15625 20.375 -22.78125 C 19.78125 -22.40625 19.28125 -21.9375 18.875 -21.375 L 12.203125 -10.546875 L 12.203125 -2.46875 C 12.203125 -1.882812 12.410156 -1.382812 12.828125 -0.96875 C 13.253906 -0.550781 13.769531 -0.34375 14.375 -0.34375 L 14.78125 -0.34375 L 14.78125 0 L 7.40625 0 L 7.40625 -0.34375 L 7.84375 -0.34375 C 8.425781 -0.34375 8.925781 -0.546875 9.34375 -0.953125 C 9.769531 -1.359375 9.992188 -1.851562 10.015625 -2.4375 L 10.015625 -10.59375 L 3.546875 -21.375 C 3.210938 -21.914062 2.734375 -22.378906 2.109375 -22.765625 C 1.492188 -23.148438 0.847656 -23.34375 0.171875 -23.34375 L -0.3125 -23.34375 L -0.3125 -23.671875 L 8.015625 -23.671875 L 8.015625 -23.34375 L 7.578125 -23.34375 C 7.078125 -23.34375 6.691406 -23.117188 6.421875 -22.671875 C 6.285156 -22.421875 6.21875 -22.175781 6.21875 -21.9375 C 6.21875 -21.695312 6.273438 -21.46875 6.390625 -21.25 L 11.46875 -11.765625 L 16.875 -21.28125 C 16.988281 -21.5 17.046875 -21.722656 17.046875 -21.953125 C 17.046875 -22.179688 16.96875 -22.421875 16.8125 -22.671875 C 16.539062 -23.117188 16.15625 -23.34375 15.65625 -23.34375 L 15.25 -23.34375 L 15.25 -23.671875 L 22.765625 -23.671875 Z M 22.765625 -23.34375 "/></g><g id="glyph-0-8"/><g id="glyph-0-9"><path d="M 13.5 -23.671875 C 17.101562 -23.671875 20.023438 -22.582031 22.265625 -20.40625 C 24.515625 -18.238281 25.640625 -15.382812 25.640625 -11.84375 C 25.640625 -8.300781 24.515625 -5.441406 22.265625 -3.265625 C 20.023438 -1.085938 17.101562 0 13.5 0 L 2.03125 0 L 2.03125 -0.34375 L 2.46875 -0.34375 C 3.050781 -0.34375 3.550781 -0.550781 3.96875 -0.96875 C 4.382812 -1.382812 4.609375 -1.882812 4.640625 -2.46875 L 4.640625 -21.40625 C 4.640625 -21.945312 4.414062 -22.40625 3.96875 -22.78125 C 3.53125 -23.15625 3.03125 -23.34375 2.46875 -23.34375 L 2.0625 -23.34375 L 2.03125 -23.671875 Z M 6.828125 -22.671875 L 6.828125 -1.015625 L 13.5 -1.015625 C 15.394531 -1.015625 17.066406 -1.460938 18.515625 -2.359375 C 19.972656 -3.265625 21.101562 -4.535156 21.90625 -6.171875 C 22.707031 -7.804688 23.109375 -9.695312 23.109375 -11.84375 C 23.109375 -15.09375 22.222656 -17.707031 20.453125 -19.6875 C 18.679688 -21.675781 16.363281 -22.671875 13.5 -22.671875 Z M 6.828125 -22.671875 "/></g><g id="glyph-0-10"><path d="M 19.921875 -20.671875 C 19.921875 -21.210938 19.726562 -21.679688 19.34375 -22.078125 C 18.96875 -22.472656 18.519531 -22.679688 18 -22.703125 L 11.5625 -22.703125 L 11.5625 -2.4375 C 11.59375 -1.851562 11.816406 -1.359375 12.234375 -0.953125 C 12.648438 -0.546875 13.148438 -0.34375 13.734375 -0.34375 L 14.171875 -0.34375 L 14.171875 0 L 6.765625 0 L 6.765625 -0.34375 L 7.203125 -0.34375 C 7.785156 -0.34375 8.285156 -0.546875 8.703125 -0.953125 C 9.128906 -1.359375 9.351562 -1.84375 9.375 -2.40625 L 9.375 -22.703125 L 2.9375 -22.703125 C 2.394531 -22.679688 1.9375 -22.472656 1.5625 -22.078125 C 1.195312 -21.679688 1.015625 -21.210938 1.015625 -20.671875 L 1.015625 -20.09375 L 0.671875 -20.0625 L 0.671875 -24.328125 C 1.015625 -24.191406 1.601562 -24.054688 2.4375 -23.921875 C 3.269531 -23.785156 4.035156 -23.71875 4.734375 -23.71875 L 16.171875 -23.71875 C 17.273438 -23.71875 18.191406 -23.800781 18.921875 -23.96875 C 19.660156 -24.132812 20.109375 -24.253906 20.265625 -24.328125 L 20.265625 -20.0625 L 19.921875 -20.09375 Z M 19.921875 -20.671875 "/></g><g id="glyph-0-11"><path d="M 6.71875 -26.296875 C 6.4375 -26.015625 6.09375 -25.875 5.6875 -25.875 C 5.28125 -25.875 4.9375 -26.015625 4.65625 -26.296875 C 4.375 -26.578125 4.234375 -26.921875 4.234375 -27.328125 C 4.234375 -27.734375 4.375 -28.078125 4.65625 -28.359375 C 4.9375 -28.640625 5.28125 -28.78125 5.6875 -28.78125 C 6.09375 -28.78125 6.4375 -28.640625 6.71875 -28.359375 C 7 -28.078125 7.140625 -27.734375 7.140625 -27.328125 C 7.140625 -26.921875 7 -26.578125 6.71875 -26.296875 Z M 2.46875 -0.34375 C 3.050781 -0.34375 3.550781 -0.550781 3.96875 -0.96875 C 4.382812 -1.382812 4.609375 -1.882812 4.640625 -2.46875 L 4.640625 -21.25 C 4.609375 -21.832031 4.382812 -22.328125 3.96875 -22.734375 C 3.550781 -23.140625 3.050781 -23.34375 2.46875 -23.34375 L 2.03125 -23.34375 L 2.03125 -23.671875 L 9.4375 -23.671875 L 9.4375 -23.34375 L 9 -23.34375 C 8.414062 -23.34375 7.910156 -23.140625 7.484375 -22.734375 C 7.066406 -22.328125 6.847656 -21.832031 6.828125 -21.25 L 6.828125 -2.46875 C 6.828125 -1.882812 7.039062 -1.382812 7.46875 -0.96875 C 7.90625 -0.550781 8.414062 -0.34375 9 -0.34375 L 9.4375 -0.34375 L 9.4375 0 L 2.03125 0 L 2.03125 -0.34375 Z M 2.46875 -0.34375 "/></g><g id="glyph-0-12"><path d="M 30.4375 -0.34375 L 30.984375 -0.34375 L 30.984375 0 L 23.640625 0 L 23.640625 -0.296875 L 24.15625 -0.296875 C 24.539062 -0.296875 24.867188 -0.445312 25.140625 -0.75 C 25.410156 -1.0625 25.519531 -1.398438 25.46875 -1.765625 L 23.953125 -18.78125 L 16.84375 -2.984375 C 16.21875 -1.597656 15.835938 -0.445312 15.703125 0.46875 L 15.359375 0.46875 L 6.703125 -18.296875 L 5.25 -1.765625 C 5.195312 -1.398438 5.304688 -1.0625 5.578125 -0.75 C 5.847656 -0.445312 6.164062 -0.296875 6.53125 -0.296875 L 7.0625 -0.296875 L 7.0625 0 L 0.5 0 L 0.5 -0.34375 L 1.046875 -0.34375 C 1.679688 -0.34375 2.226562 -0.53125 2.6875 -0.90625 C 3.144531 -1.289062 3.421875 -1.8125 3.515625 -2.46875 L 6.0625 -24.15625 L 6.390625 -24.15625 L 15.828125 -3.75 L 25.0625 -24.15625 L 25.375 -24.15625 L 27.96875 -2.46875 C 28.082031 -1.5625 28.535156 -0.929688 29.328125 -0.578125 C 29.671875 -0.421875 30.039062 -0.34375 30.4375 -0.34375 Z M 30.4375 -0.34375 "/></g></g><clipPath id="clip-0"><path d="M 13 2 L 60 2 L 60 49 L 13 49 Z M 13 2 " clip-rule="nonzero"/></clipPath><clipPath id="clip-1"><path d="M 36.660156 1.726562 L 60.3125 25.378906 L 36.660156 49.03125 L 13.007812 25.378906 Z M 36.660156 1.726562 " clip-rule="nonzero"/></clipPath><clipPath id="clip-2"><path d="M 36.660156 1.726562 L 60.3125 25.378906 L 36.660156 49.03125 L 13.007812 25.378906 Z M 36.660156 1.726562 " clip-rule="nonzero"/></clipPath></defs><g fill="rgb(100%, 100%, 100%)" fill-opacity="1"><use x="65.156945" y="35.524718" xmlns:xlink="http://www.w3.org/1999/xlink" xlink:href="#glyph-0-1" xlink:type="simple" xlink:actuate="onLoad" xlink:show="embed"/></g><g fill="rgb(100%, 100%, 100%)" fill-opacity="1"><use x="85.141874" y="35.524718" xmlns:xlink="http://www.w3.org/1999/xlink" xlink:href="#glyph-0-2" xlink:type="simple" xlink:actuate="onLoad" xlink:show="embed"/></g><g fill="rgb(100%, 100%, 100%)" fill-opacity="1"><use x="114.054001" y="35.524718" xmlns:xlink="http://www.w3.org/1999/xlink" xlink:href="#glyph-0-3" xlink:type="simple" xlink:actuate="onLoad" xlink:show="embed"/></g><g fill="rgb(100%, 100%, 100%)" fill-opacity="1"><use x="136.74414" y="35.524718" xmlns:xlink="http://www.w3.org/1999/xlink" xlink:href="#glyph-0-4" xlink:type="simple" xlink:actuate="onLoad" xlink:show="embed"/></g><g fill="rgb(100%, 100%, 100%)" fill-opacity="1"><use x="165.554814" y="35.524718" xmlns:xlink="http://www.w3.org/1999/xlink" xlink:href="#glyph-0-5" xlink:type="simple" xlink:actuate="onLoad" xlink:show="embed"/></g><g fill="rgb(100%, 100%, 100%)" fill-opacity="1"><use x="185.03252" y="35.524718" xmlns:xlink="http://www.w3.org/1999/xlink" xlink:href="#glyph-0-6" xlink:type="simple" xlink:actuate="onLoad" xlink:show="embed"/></g><g fill="rgb(100%, 100%, 100%)" fill-opacity="1"><use x="209.582497" y="35.524718" xmlns:xlink="http://www.w3.org/1999/xlink" xlink:href="#glyph-0-7" xlink:type="simple" xlink:actuate="onLoad" xlink:show="embed"/></g><g fill="rgb(100%, 100%, 100%)" fill-opacity="1"><use x="232.407909" y="35.524718" xmlns:xlink="http://www.w3.org/1999/xlink" xlink:href="#glyph-0-8" xlink:type="simple" xlink:actuate="onLoad" xlink:show="embed"/></g><g fill="rgb(100%, 100%, 100%)" fill-opacity="1"><use x="241.335293" y="35.524718" xmlns:xlink="http://www.w3.org/1999/xlink" xlink:href="#glyph-0-9" xlink:type="simple" xlink:actuate="onLoad" xlink:show="embed"/></g><g fill="rgb(100%, 100%, 100%)" fill-opacity="1"><use x="269.097717" y="35.524718" xmlns:xlink="http://www.w3.org/1999/xlink" xlink:href="#glyph-0-1" xlink:type="simple" xlink:actuate="onLoad" xlink:show="embed"/></g><g fill="rgb(100%, 100%, 100%)" fill-opacity="1"><use x="289.082652" y="35.524718" xmlns:xlink="http://www.w3.org/1999/xlink" xlink:href="#glyph-0-2" xlink:type="simple" xlink:actuate="onLoad" xlink:show="embed"/></g><g fill="rgb(100%, 100%, 100%)" fill-opacity="1"><use x="317.994786" y="35.524718" xmlns:xlink="http://www.w3.org/1999/xlink" xlink:href="#glyph-0-1" xlink:type="simple" xlink:actuate="onLoad" xlink:show="embed"/></g><g fill="rgb(100%, 100%, 100%)" fill-opacity="1"><use x="337.979722" y="35.524718" xmlns:xlink="http://www.w3.org/1999/xlink" xlink:href="#glyph-0-10" xlink:type="simple" xlink:actuate="onLoad" xlink:show="embed"/></g><g fill="rgb(100%, 100%, 100%)" fill-opacity="1"><use x="359.35107" y="35.524718" xmlns:xlink="http://www.w3.org/1999/xlink" xlink:href="#glyph-0-11" xlink:type="simple" xlink:actuate="onLoad" xlink:show="embed"/></g><g fill="rgb(100%, 100%, 100%)" fill-opacity="1"><use x="371.254181" y="35.524718" xmlns:xlink="http://www.w3.org/1999/xlink" xlink:href="#glyph-0-12" xlink:type="simple" xlink:actuate="onLoad" xlink:show="embed"/></g><g clip-path="url(#clip-0)"><g clip-path="url(#clip-1)"><g clip-path="url(#clip-2)"><path fill="rgb(100%, 100%, 100%)" d="M 59.738281 24.808594 L 37.230469 2.300781 C 36.925781 1.992188 36.421875 1.992188 36.117188 2.300781 L 13.578125 24.835938 C 13.269531 25.144531 13.269531 25.644531 13.578125 25.953125 L 36.085938 48.460938 C 36.394531 48.769531 36.894531 48.769531 37.203125 48.460938 L 59.738281 25.921875 C 60.046875 25.613281 60.046875 25.113281 59.738281 24.808594 Z M 20.898438 25.953125 L 31.867188 36.921875 L 29.324219 39.464844 L 15.25 25.394531 L 36.671875 3.972656 L 39.21875 6.519531 L 20.898438 24.835938 C 20.59375 25.144531 20.59375 25.644531 20.898438 25.953125 Z M 28.21875 25.953125 L 35.527344 33.261719 L 32.984375 35.804688 L 22.574219 25.394531 L 40.335938 7.632812 L 42.878906 10.179688 L 28.21875 24.835938 C 27.914062 25.144531 27.914062 25.644531 28.21875 25.953125 Z M 29.894531 25.394531 L 36.671875 18.613281 L 43.421875 25.363281 L 36.644531 32.144531 Z M 45.097656 24.808594 L 37.789062 17.5 L 40.335938 14.953125 L 50.746094 25.363281 L 32.984375 43.125 L 30.4375 40.582031 L 45.097656 25.921875 C 45.40625 25.613281 45.40625 25.113281 45.097656 24.808594 Z M 52.417969 24.808594 L 41.449219 13.839844 L 43.996094 11.292969 L 58.066406 25.363281 L 36.644531 46.789062 L 34.097656 44.242188 L 52.417969 25.921875 C 52.726562 25.617188 52.726562 25.113281 52.417969 24.808594 Z M 52.417969 24.808594 " fill-opacity="1" fill-rule="nonzero"/></g></g></g></svg>