<?xml version="1.0" encoding="UTF-8"?>
<svg xmlns="http://www.w3.org/2000/svg" xmlns:xlink="http://www.w3.org/1999/xlink" width="341.25pt" height="74.999997pt" viewBox="0 0 341.25 74.999997" version="1.2">
<defs>
<g>
<symbol overflow="visible" id="glyph0-0">
<path style="stroke:none;" d=""/>
</symbol>
<symbol overflow="visible" id="glyph0-1">
<path style="stroke:none;" d="M 22.390625 -19.859375 C 21.910156 -19.859375 21.5 -19.691406 21.15625 -19.359375 C 20.8125 -19.023438 20.628906 -18.613281 20.609375 -18.125 L 20.609375 -3.28125 C 20.609375 -2.164062 20.675781 -1.109375 20.8125 -0.109375 L 20.859375 0.40625 L 20.609375 0.40625 L 4.921875 -16.34375 L 4.921875 -2.015625 C 4.941406 -1.335938 5.238281 -0.835938 5.8125 -0.515625 C 6.082031 -0.359375 6.367188 -0.28125 6.671875 -0.28125 L 7.21875 -0.28125 L 7.21875 0 L 1.296875 0 L 1.296875 -0.28125 L 1.84375 -0.28125 C 2.320312 -0.28125 2.734375 -0.445312 3.078125 -0.78125 C 3.421875 -1.125 3.59375 -1.546875 3.59375 -2.046875 L 3.59375 -16.984375 C 3.59375 -18.148438 3.523438 -19.195312 3.390625 -20.125 L 3.34375 -20.578125 L 3.625 -20.578125 L 19.3125 -3.828125 L 19.3125 -18.109375 C 19.289062 -18.609375 19.109375 -19.023438 18.765625 -19.359375 C 18.421875 -19.691406 18.007812 -19.859375 17.53125 -19.859375 L 16.984375 -19.859375 L 16.984375 -20.140625 L 22.90625 -20.140625 L 22.90625 -19.859375 Z M 22.390625 -19.859375 "/>
</symbol>
<symbol overflow="visible" id="glyph0-2">
<path style="stroke:none;" d="M 7.65625 -0.28125 L 8.03125 -0.28125 L 8.03125 0 L 1.734375 0 L 1.734375 -0.28125 L 2.09375 -0.28125 C 2.59375 -0.28125 3.019531 -0.457031 3.375 -0.8125 C 3.738281 -1.175781 3.925781 -1.601562 3.9375 -2.09375 L 3.9375 -18.078125 C 3.925781 -18.578125 3.738281 -19 3.375 -19.34375 C 3.019531 -19.6875 2.59375 -19.859375 2.09375 -19.859375 L 1.734375 -19.859375 L 1.734375 -20.140625 L 8.03125 -20.140625 L 8.03125 -19.859375 L 7.65625 -19.859375 C 7.15625 -19.859375 6.726562 -19.6875 6.375 -19.34375 C 6.019531 -19 5.832031 -18.578125 5.8125 -18.078125 L 5.8125 -2.09375 C 5.8125 -1.601562 5.992188 -1.175781 6.359375 -0.8125 C 6.722656 -0.457031 7.15625 -0.28125 7.65625 -0.28125 Z M 19.21875 0 L 17.984375 0 C 16.023438 0 14.585938 -0.546875 13.671875 -1.640625 L 6.734375 -10.015625 L 13.53125 -18.53125 C 13.675781 -18.726562 13.75 -18.898438 13.75 -19.046875 C 13.75 -19.203125 13.722656 -19.335938 13.671875 -19.453125 C 13.515625 -19.742188 13.238281 -19.890625 12.84375 -19.890625 L 12.546875 -19.890625 L 12.546875 -20.140625 L 18.625 -20.140625 L 18.625 -19.890625 L 18.5 -19.890625 C 17.238281 -19.890625 16.203125 -19.4375 15.390625 -18.53125 L 8.640625 -10.703125 L 16.484375 -1.46875 C 17.253906 -0.695312 18.164062 -0.300781 19.21875 -0.28125 Z M 19.21875 0 "/>
</symbol>
<symbol overflow="visible" id="glyph0-3">
<path style="stroke:none;" d="M 4.875 -17.65625 C 6.78125 -19.582031 9.269531 -20.546875 12.34375 -20.546875 C 15.414062 -20.546875 17.910156 -19.582031 19.828125 -17.65625 C 21.742188 -15.726562 22.703125 -13.195312 22.703125 -10.0625 C 22.703125 -6.9375 21.742188 -4.410156 19.828125 -2.484375 C 17.910156 -0.554688 15.414062 0.40625 12.34375 0.40625 C 9.269531 0.40625 6.78125 -0.554688 4.875 -2.484375 C 2.96875 -4.410156 2.015625 -6.9375 2.015625 -10.0625 C 2.015625 -13.195312 2.96875 -15.726562 4.875 -17.65625 Z M 6.453125 -3.09375 C 7.941406 -1.332031 9.910156 -0.453125 12.359375 -0.453125 C 14.804688 -0.453125 16.773438 -1.332031 18.265625 -3.09375 C 19.753906 -4.863281 20.5 -7.191406 20.5 -10.078125 C 20.5 -11.972656 20.160156 -13.648438 19.484375 -15.109375 C 18.816406 -16.566406 17.863281 -17.691406 16.625 -18.484375 C 15.382812 -19.285156 13.957031 -19.6875 12.34375 -19.6875 C 9.90625 -19.6875 7.941406 -18.800781 6.453125 -17.03125 C 4.972656 -15.269531 4.234375 -12.945312 4.234375 -10.0625 C 4.234375 -7.1875 4.972656 -4.863281 6.453125 -3.09375 Z M 6.453125 -3.09375 "/>
</symbol>
<symbol overflow="visible" id="glyph0-4">
<path style="stroke:none;" d="M 2.09375 -0.28125 C 2.59375 -0.28125 3.019531 -0.457031 3.375 -0.8125 C 3.738281 -1.175781 3.925781 -1.601562 3.9375 -2.09375 L 3.9375 -18.046875 C 3.925781 -18.546875 3.738281 -18.972656 3.375 -19.328125 C 3.019531 -19.679688 2.59375 -19.859375 2.09375 -19.859375 L 1.734375 -19.859375 L 1.734375 -20.140625 L 8.03125 -20.140625 L 8.03125 -19.859375 L 7.65625 -19.859375 C 6.96875 -19.859375 6.441406 -19.5625 6.078125 -18.96875 C 5.898438 -18.675781 5.8125 -18.367188 5.8125 -18.046875 L 5.8125 -0.890625 L 9.921875 -0.890625 C 11.347656 -0.890625 12.429688 -1.207031 13.171875 -1.84375 C 13.921875 -2.476562 14.546875 -3.414062 15.046875 -4.65625 L 15.34375 -4.65625 L 13.671875 0 L 1.734375 0 L 1.734375 -0.28125 Z M 2.09375 -0.28125 "/>
</symbol>
<symbol overflow="visible" id="glyph0-5">
<path style="stroke:none;" d="M 20.609375 -0.28125 L 20.84375 -0.28125 L 20.84375 0 L 14.359375 0 L 14.359375 -0.28125 L 14.625 -0.28125 C 15.03125 -0.28125 15.332031 -0.410156 15.53125 -0.671875 C 15.726562 -0.929688 15.828125 -1.175781 15.828125 -1.40625 C 15.828125 -1.632812 15.789062 -1.863281 15.71875 -2.09375 L 13.875 -7 L 6.109375 -7 L 4.171875 -2.078125 C 4.097656 -1.847656 4.0625 -1.617188 4.0625 -1.390625 C 4.0625 -1.171875 4.160156 -0.929688 4.359375 -0.671875 C 4.566406 -0.410156 4.867188 -0.28125 5.265625 -0.28125 L 5.53125 -0.28125 L 5.53125 0 L -0.25 0 L -0.25 -0.28125 L 0 -0.28125 C 0.476562 -0.28125 0.945312 -0.429688 1.40625 -0.734375 C 1.875 -1.046875 2.25 -1.5 2.53125 -2.09375 L 9.046875 -17.578125 C 9.753906 -19.140625 10.109375 -20.128906 10.109375 -20.546875 L 10.359375 -20.546875 L 18.078125 -2.09375 C 18.347656 -1.5 18.710938 -1.046875 19.171875 -0.734375 C 19.628906 -0.429688 20.109375 -0.28125 20.609375 -0.28125 Z M 6.453125 -7.859375 L 13.53125 -7.859375 L 10.078125 -17.09375 Z M 6.453125 -7.859375 "/>
</symbol>
<symbol overflow="visible" id="glyph0-6">
<path style="stroke:none;" d="M 19.375 -19.859375 L 18.96875 -19.859375 C 18.394531 -19.859375 17.851562 -19.695312 17.34375 -19.375 C 16.832031 -19.0625 16.40625 -18.664062 16.0625 -18.1875 L 10.390625 -8.984375 L 10.390625 -2.09375 C 10.390625 -1.601562 10.566406 -1.175781 10.921875 -0.8125 C 11.273438 -0.457031 11.710938 -0.28125 12.234375 -0.28125 L 12.578125 -0.28125 L 12.578125 0 L 6.3125 0 L 6.3125 -0.28125 L 6.6875 -0.28125 C 7.175781 -0.28125 7.597656 -0.453125 7.953125 -0.796875 C 8.316406 -1.148438 8.503906 -1.578125 8.515625 -2.078125 L 8.515625 -9.015625 L 3.03125 -18.1875 C 2.738281 -18.644531 2.328125 -19.035156 1.796875 -19.359375 C 1.273438 -19.691406 0.722656 -19.859375 0.140625 -19.859375 L -0.25 -19.859375 L -0.25 -20.140625 L 6.828125 -20.140625 L 6.828125 -19.859375 L 6.453125 -19.859375 C 6.023438 -19.859375 5.695312 -19.664062 5.46875 -19.28125 C 5.351562 -19.070312 5.296875 -18.863281 5.296875 -18.65625 C 5.296875 -18.457031 5.34375 -18.265625 5.4375 -18.078125 L 9.765625 -10.015625 L 14.359375 -18.109375 C 14.460938 -18.296875 14.515625 -18.484375 14.515625 -18.671875 C 14.515625 -18.867188 14.445312 -19.070312 14.3125 -19.28125 C 14.082031 -19.664062 13.753906 -19.859375 13.328125 -19.859375 L 12.984375 -19.859375 L 12.984375 -20.140625 L 19.375 -20.140625 Z M 19.375 -19.859375 "/>
</symbol>
<symbol overflow="visible" id="glyph0-7">
<path style="stroke:none;" d=""/>
</symbol>
<symbol overflow="visible" id="glyph0-8">
<path style="stroke:none;" d="M 11.484375 -20.140625 C 14.554688 -20.140625 17.046875 -19.210938 18.953125 -17.359375 C 20.859375 -15.515625 21.8125 -13.085938 21.8125 -10.078125 C 21.8125 -7.066406 20.859375 -4.632812 18.953125 -2.78125 C 17.046875 -0.925781 14.554688 0 11.484375 0 L 1.734375 0 L 1.734375 -0.28125 L 2.09375 -0.28125 C 2.59375 -0.28125 3.019531 -0.457031 3.375 -0.8125 C 3.738281 -1.175781 3.925781 -1.601562 3.9375 -2.09375 L 3.9375 -18.21875 C 3.9375 -18.675781 3.75 -19.0625 3.375 -19.375 C 3.007812 -19.695312 2.582031 -19.859375 2.09375 -19.859375 L 1.75 -19.859375 L 1.734375 -20.140625 Z M 5.8125 -19.28125 L 5.8125 -0.859375 L 11.484375 -0.859375 C 13.097656 -0.859375 14.519531 -1.242188 15.75 -2.015625 C 16.988281 -2.785156 17.945312 -3.863281 18.625 -5.25 C 19.3125 -6.644531 19.65625 -8.253906 19.65625 -10.078125 C 19.65625 -12.835938 18.898438 -15.0625 17.390625 -16.75 C 15.890625 -18.4375 13.921875 -19.28125 11.484375 -19.28125 Z M 5.8125 -19.28125 "/>
</symbol>
<symbol overflow="visible" id="glyph0-9">
<path style="stroke:none;" d="M 2.09375 -0.28125 C 2.59375 -0.28125 3.019531 -0.457031 3.375 -0.8125 C 3.738281 -1.175781 3.925781 -1.601562 3.9375 -2.09375 L 3.9375 -18.21875 C 3.882812 -18.675781 3.6875 -19.0625 3.34375 -19.375 C 3 -19.695312 2.582031 -19.859375 2.09375 -19.859375 L 1.75 -19.859375 L 1.734375 -20.140625 L 10.15625 -20.140625 C 10.75 -20.140625 11.394531 -20.195312 12.09375 -20.3125 C 12.800781 -20.4375 13.296875 -20.554688 13.578125 -20.671875 L 13.578125 -17.03125 L 13.296875 -17.03125 L 13.296875 -17.5625 C 13.296875 -18.019531 13.132812 -18.410156 12.8125 -18.734375 C 12.5 -19.054688 12.125 -19.226562 11.6875 -19.25 L 5.8125 -19.25 L 5.8125 -10.359375 L 10.671875 -10.359375 C 11.054688 -10.378906 11.382812 -10.523438 11.65625 -10.796875 C 11.925781 -11.066406 12.0625 -11.398438 12.0625 -11.796875 L 12.0625 -12.203125 L 12.34375 -12.203125 L 12.34375 -7.65625 L 12.0625 -7.65625 L 12.0625 -8.09375 C 12.0625 -8.46875 11.929688 -8.789062 11.671875 -9.0625 C 11.410156 -9.332031 11.085938 -9.476562 10.703125 -9.5 L 5.8125 -9.5 L 5.8125 -0.890625 L 9.921875 -0.890625 C 11.347656 -0.890625 12.429688 -1.207031 13.171875 -1.84375 C 13.921875 -2.476562 14.546875 -3.414062 15.046875 -4.65625 L 15.34375 -4.65625 L 13.671875 0 L 1.734375 0 L 1.734375 -0.28125 Z M 2.09375 -0.28125 "/>
</symbol>
<symbol overflow="visible" id="glyph0-10">
<path style="stroke:none;" d="M 16.953125 -17.578125 C 16.953125 -18.046875 16.785156 -18.445312 16.453125 -18.78125 C 16.128906 -19.113281 15.75 -19.289062 15.3125 -19.3125 L 9.84375 -19.3125 L 9.84375 -2.078125 C 9.863281 -1.578125 10.050781 -1.148438 10.40625 -0.796875 C 10.757812 -0.453125 11.1875 -0.28125 11.6875 -0.28125 L 12.0625 -0.28125 L 12.0625 0 L 5.75 0 L 5.75 -0.28125 L 6.125 -0.28125 C 6.625 -0.28125 7.050781 -0.453125 7.40625 -0.796875 C 7.757812 -1.148438 7.945312 -1.566406 7.96875 -2.046875 L 7.96875 -19.3125 L 2.5 -19.3125 C 2.039062 -19.289062 1.648438 -19.113281 1.328125 -18.78125 C 1.015625 -18.445312 0.859375 -18.046875 0.859375 -17.578125 L 0.859375 -17.09375 L 0.578125 -17.0625 L 0.578125 -20.6875 C 0.859375 -20.570312 1.351562 -20.457031 2.0625 -20.34375 C 2.78125 -20.226562 3.4375 -20.171875 4.03125 -20.171875 L 13.75 -20.171875 C 14.695312 -20.171875 15.476562 -20.242188 16.09375 -20.390625 C 16.71875 -20.535156 17.097656 -20.632812 17.234375 -20.6875 L 17.234375 -17.0625 L 16.953125 -17.09375 Z M 16.953125 -17.578125 "/>
</symbol>
<symbol overflow="visible" id="glyph0-11">
<path style="stroke:none;" d="M 5.71875 -22.375 C 5.476562 -22.132812 5.179688 -22.015625 4.828125 -22.015625 C 4.484375 -22.015625 4.191406 -22.132812 3.953125 -22.375 C 3.710938 -22.613281 3.59375 -22.90625 3.59375 -23.25 C 3.59375 -23.59375 3.710938 -23.882812 3.953125 -24.125 C 4.191406 -24.375 4.484375 -24.5 4.828125 -24.5 C 5.179688 -24.5 5.476562 -24.375 5.71875 -24.125 C 5.957031 -23.882812 6.078125 -23.59375 6.078125 -23.25 C 6.078125 -22.90625 5.957031 -22.613281 5.71875 -22.375 Z M 2.09375 -0.28125 C 2.59375 -0.28125 3.019531 -0.457031 3.375 -0.8125 C 3.738281 -1.175781 3.925781 -1.601562 3.9375 -2.09375 L 3.9375 -18.078125 C 3.925781 -18.578125 3.738281 -19 3.375 -19.34375 C 3.019531 -19.6875 2.59375 -19.859375 2.09375 -19.859375 L 1.734375 -19.859375 L 1.734375 -20.140625 L 8.03125 -20.140625 L 8.03125 -19.859375 L 7.65625 -19.859375 C 7.15625 -19.859375 6.726562 -19.6875 6.375 -19.34375 C 6.019531 -19 5.832031 -18.578125 5.8125 -18.078125 L 5.8125 -2.09375 C 5.8125 -1.601562 5.992188 -1.175781 6.359375 -0.8125 C 6.722656 -0.457031 7.15625 -0.28125 7.65625 -0.28125 L 8.03125 -0.28125 L 8.03125 0 L 1.734375 0 L 1.734375 -0.28125 Z M 2.09375 -0.28125 "/>
</symbol>
<symbol overflow="visible" id="glyph0-12">
<path style="stroke:none;" d="M 25.90625 -0.28125 L 26.359375 -0.28125 L 26.359375 0 L 20.125 0 L 20.125 -0.265625 L 20.546875 -0.265625 C 20.867188 -0.265625 21.144531 -0.390625 21.375 -0.640625 C 21.613281 -0.898438 21.710938 -1.1875 21.671875 -1.5 L 20.375 -15.96875 L 14.328125 -2.53125 C 13.796875 -1.363281 13.472656 -0.382812 13.359375 0.40625 L 13.0625 0.40625 L 5.703125 -15.578125 L 4.46875 -1.5 C 4.425781 -1.1875 4.519531 -0.898438 4.75 -0.640625 C 4.976562 -0.390625 5.25 -0.265625 5.5625 -0.265625 L 6.015625 -0.265625 L 6.015625 0 L 0.4375 0 L 0.4375 -0.28125 L 0.890625 -0.28125 C 1.429688 -0.28125 1.894531 -0.441406 2.28125 -0.765625 C 2.675781 -1.097656 2.914062 -1.539062 3 -2.09375 L 5.15625 -20.546875 L 5.4375 -20.546875 L 13.46875 -3.1875 L 21.328125 -20.546875 L 21.578125 -20.546875 L 23.796875 -2.09375 C 23.898438 -1.332031 24.285156 -0.796875 24.953125 -0.484375 C 25.242188 -0.347656 25.5625 -0.28125 25.90625 -0.28125 Z M 25.90625 -0.28125 "/>
</symbol>
</g>
<clipPath id="clip1">
  <path d="M 4 18 L 47 18 L 47 61 L 4 61 Z M 4 18 "/>
</clipPath>
<clipPath id="clip2">
  <path d="M 25.542969 18.125 L 46.707031 39.292969 L 25.542969 60.460938 L 4.375 39.292969 Z M 25.542969 18.125 "/>
</clipPath>
<clipPath id="clip3">
  <path d="M 25.542969 18.125 L 46.707031 39.292969 L 25.542969 60.460938 L 4.375 39.292969 Z M 25.542969 18.125 "/>
</clipPath>
</defs>
<g id="surface1">
<g style="fill:rgb(0%,29.019165%,67.83905%);fill-opacity:1;">
  <use xlink:href="#glyph0-1" x="46.654841" y="47.426022"/>
</g>
<g style="fill:rgb(0%,29.019165%,67.83905%);fill-opacity:1;">
  <use xlink:href="#glyph0-2" x="72.841901" y="47.426022"/>
</g>
<g style="fill:rgb(0%,29.019165%,67.83905%);fill-opacity:1;">
  <use xlink:href="#glyph0-3" x="93.734065" y="47.426022"/>
</g>
<g style="fill:rgb(0%,29.019165%,67.83905%);fill-opacity:1;">
  <use xlink:href="#glyph0-4" x="119.834787" y="47.426022"/>
</g>
<g style="fill:rgb(0%,29.019165%,67.83905%);fill-opacity:1;">
  <use xlink:href="#glyph0-5" x="137.993175" y="47.426022"/>
</g>
<g style="fill:rgb(0%,29.019165%,67.83905%);fill-opacity:1;">
  <use xlink:href="#glyph0-6" x="160.468052" y="47.426022"/>
</g>
<g style="fill:rgb(0%,29.019165%,67.83905%);fill-opacity:1;">
  <use xlink:href="#glyph0-7" x="181.475313" y="47.426022"/>
</g>
<g style="fill:rgb(0%,29.019165%,67.83905%);fill-opacity:1;">
  <use xlink:href="#glyph0-8" x="190.655409" y="47.426022"/>
</g>
<g style="fill:rgb(0%,29.019165%,67.83905%);fill-opacity:1;">
  <use xlink:href="#glyph0-9" x="215.864061" y="47.426022"/>
</g>
<g style="fill:rgb(0%,29.019165%,67.83905%);fill-opacity:1;">
  <use xlink:href="#glyph0-1" x="234.454094" y="47.426022"/>
</g>
<g style="fill:rgb(0%,29.019165%,67.83905%);fill-opacity:1;">
  <use xlink:href="#glyph0-9" x="260.64116" y="47.426022"/>
</g>
<g style="fill:rgb(0%,29.019165%,67.83905%);fill-opacity:1;">
  <use xlink:href="#glyph0-10" x="279.231192" y="47.426022"/>
</g>
<g style="fill:rgb(0%,29.019165%,67.83905%);fill-opacity:1;">
  <use xlink:href="#glyph0-11" x="299.00108" y="47.426022"/>
</g>
<g style="fill:rgb(0%,29.019165%,67.83905%);fill-opacity:1;">
  <use xlink:href="#glyph0-12" x="310.71352" y="47.426022"/>
</g>
<g clip-path="url(#clip1)" clip-rule="nonzero">
<g clip-path="url(#clip2)" clip-rule="nonzero">
<g clip-path="url(#clip3)" clip-rule="nonzero">
<path style=" stroke:none;fill-rule:nonzero;fill:rgb(0%,29.019165%,67.83905%);fill-opacity:1;" d="M 46.195312 38.78125 L 26.054688 18.636719 C 25.777344 18.363281 25.332031 18.363281 25.054688 18.636719 L 4.886719 38.808594 C 4.613281 39.082031 4.613281 39.53125 4.886719 39.804688 L 25.027344 59.949219 C 25.304688 60.222656 25.753906 60.222656 26.027344 59.949219 L 46.195312 39.777344 C 46.472656 39.503906 46.472656 39.054688 46.195312 38.78125 Z M 11.4375 39.804688 L 21.253906 49.621094 L 18.976562 51.898438 L 6.382812 39.308594 L 25.554688 20.136719 L 27.832031 22.414062 L 11.4375 38.808594 C 11.164062 39.082031 11.164062 39.53125 11.4375 39.804688 Z M 17.988281 39.804688 L 24.53125 46.347656 L 22.253906 48.625 L 12.9375 39.308594 L 28.832031 23.410156 L 31.109375 25.6875 L 17.988281 38.808594 C 17.714844 39.082031 17.714844 39.53125 17.988281 39.804688 Z M 19.488281 39.308594 L 25.554688 33.238281 L 31.597656 39.28125 L 25.527344 45.347656 Z M 33.09375 38.78125 L 26.554688 32.242188 L 28.832031 29.964844 L 38.148438 39.28125 L 22.253906 55.175781 L 19.976562 52.898438 L 33.09375 39.777344 C 33.367188 39.503906 33.367188 39.054688 33.09375 38.78125 Z M 39.644531 38.78125 L 29.828125 28.964844 L 32.105469 26.6875 L 44.699219 39.28125 L 25.527344 58.453125 L 23.25 56.171875 L 39.644531 39.777344 C 39.921875 39.503906 39.921875 39.054688 39.644531 38.78125 Z M 39.644531 38.78125 "/>
</g>
</g>
</g>
</g>
</svg>
