<?xml version="1.0" encoding="UTF-8"?><svg xmlns="http://www.w3.org/2000/svg" xmlns:xlink="http://www.w3.org/1999/xlink" width="261" zoomAndPan="magnify" viewBox="0 0 261 82.499998" height="82.499998" preserveAspectRatio="xMidYMid meet" version="1.0"><defs><g><g id="glyph-0-0"/><g id="glyph-0-1"><path d="M 1.65625 -0.234375 C 2.050781 -0.234375 2.390625 -0.367188 2.671875 -0.640625 C 2.953125 -0.921875 3.101562 -1.257812 3.125 -1.65625 L 3.125 -14.40625 C 3.070312 -14.769531 2.910156 -15.078125 2.640625 -15.328125 C 2.367188 -15.578125 2.039062 -15.703125 1.65625 -15.703125 L 1.390625 -15.703125 L 1.359375 -15.9375 L 8.03125 -15.9375 C 8.5 -15.9375 9.007812 -15.976562 9.5625 -16.0625 C 10.125 -16.15625 10.519531 -16.25 10.75 -16.34375 L 10.75 -13.484375 L 10.515625 -13.484375 L 10.515625 -13.890625 C 10.515625 -14.253906 10.390625 -14.5625 10.140625 -14.8125 C 9.890625 -15.070312 9.59375 -15.210938 9.25 -15.234375 L 4.59375 -15.234375 L 4.59375 -8.203125 L 8.453125 -8.203125 C 8.753906 -8.210938 9.007812 -8.320312 9.21875 -8.53125 C 9.425781 -8.75 9.53125 -9.015625 9.53125 -9.328125 L 9.53125 -9.65625 L 9.765625 -9.65625 L 9.765625 -6.0625 L 9.53125 -6.0625 L 9.53125 -6.390625 C 9.53125 -6.703125 9.425781 -6.960938 9.21875 -7.171875 C 9.019531 -7.378906 8.769531 -7.492188 8.46875 -7.515625 L 4.59375 -7.515625 L 4.59375 -0.703125 L 7.859375 -0.703125 C 8.972656 -0.703125 9.828125 -0.953125 10.421875 -1.453125 C 11.015625 -1.953125 11.507812 -2.695312 11.90625 -3.6875 L 12.140625 -3.6875 L 10.8125 0 L 1.359375 0 L 1.359375 -0.234375 Z M 1.65625 -0.234375 "/></g><g id="glyph-0-2"><path d="M 17.71875 -15.703125 C 17.332031 -15.703125 17.003906 -15.566406 16.734375 -15.296875 C 16.460938 -15.035156 16.316406 -14.71875 16.296875 -14.34375 L 16.296875 -2.59375 C 16.296875 -1.71875 16.347656 -0.882812 16.453125 -0.09375 L 16.5 0.3125 L 16.296875 0.3125 L 3.890625 -12.9375 L 3.890625 -1.59375 C 3.910156 -1.0625 4.144531 -0.664062 4.59375 -0.40625 C 4.8125 -0.289062 5.039062 -0.234375 5.28125 -0.234375 L 5.71875 -0.234375 L 5.71875 0 L 1.03125 0 L 1.03125 -0.234375 L 1.453125 -0.234375 C 1.835938 -0.234375 2.164062 -0.363281 2.4375 -0.625 C 2.707031 -0.894531 2.84375 -1.222656 2.84375 -1.609375 L 2.84375 -13.4375 C 2.84375 -14.363281 2.789062 -15.1875 2.6875 -15.90625 L 2.640625 -16.28125 L 2.875 -16.28125 L 15.28125 -3.03125 L 15.28125 -14.3125 C 15.257812 -14.707031 15.113281 -15.035156 14.84375 -15.296875 C 14.570312 -15.566406 14.242188 -15.703125 13.859375 -15.703125 L 13.4375 -15.703125 L 13.4375 -15.9375 L 18.125 -15.9375 L 18.125 -15.703125 Z M 17.71875 -15.703125 "/></g><g id="glyph-0-3"><path d="M 6.0625 -0.234375 L 6.359375 -0.234375 L 6.359375 0 L 1.359375 0 L 1.359375 -0.234375 L 1.65625 -0.234375 C 2.050781 -0.234375 2.390625 -0.367188 2.671875 -0.640625 C 2.953125 -0.921875 3.101562 -1.257812 3.125 -1.65625 L 3.125 -14.296875 C 3.101562 -14.691406 2.953125 -15.023438 2.671875 -15.296875 C 2.390625 -15.566406 2.050781 -15.703125 1.65625 -15.703125 L 1.359375 -15.703125 L 1.359375 -15.9375 L 6.359375 -15.9375 L 6.359375 -15.703125 L 6.0625 -15.703125 C 5.664062 -15.703125 5.328125 -15.566406 5.046875 -15.296875 C 4.765625 -15.023438 4.613281 -14.691406 4.59375 -14.296875 L 4.59375 -1.65625 C 4.59375 -1.257812 4.738281 -0.921875 5.03125 -0.640625 C 5.320312 -0.367188 5.664062 -0.234375 6.0625 -0.234375 Z M 15.203125 0 L 14.234375 0 C 12.679688 0 11.539062 -0.429688 10.8125 -1.296875 L 5.328125 -7.921875 L 10.703125 -14.65625 C 10.816406 -14.8125 10.875 -14.945312 10.875 -15.0625 C 10.875 -15.1875 10.851562 -15.296875 10.8125 -15.390625 C 10.6875 -15.617188 10.46875 -15.734375 10.15625 -15.734375 L 9.921875 -15.734375 L 9.921875 -15.9375 L 14.734375 -15.9375 L 14.734375 -15.734375 L 14.640625 -15.734375 C 13.640625 -15.734375 12.816406 -15.375 12.171875 -14.65625 L 6.828125 -8.46875 L 13.046875 -1.15625 C 13.648438 -0.550781 14.367188 -0.242188 15.203125 -0.234375 Z M 15.203125 0 "/></g><g id="glyph-0-4"><path d="M 3.859375 -13.953125 C 5.367188 -15.484375 7.335938 -16.25 9.765625 -16.25 C 12.191406 -16.25 14.164062 -15.484375 15.6875 -13.953125 C 17.207031 -12.429688 17.96875 -10.429688 17.96875 -7.953125 C 17.96875 -5.484375 17.207031 -3.488281 15.6875 -1.96875 C 14.164062 -0.445312 12.191406 0.3125 9.765625 0.3125 C 7.335938 0.3125 5.367188 -0.445312 3.859375 -1.96875 C 2.347656 -3.488281 1.59375 -5.484375 1.59375 -7.953125 C 1.59375 -10.429688 2.347656 -12.429688 3.859375 -13.953125 Z M 5.109375 -2.453125 C 6.285156 -1.054688 7.84375 -0.359375 9.78125 -0.359375 C 11.71875 -0.359375 13.269531 -1.054688 14.4375 -2.453125 C 15.613281 -3.847656 16.203125 -5.6875 16.203125 -7.96875 C 16.203125 -9.46875 15.9375 -10.796875 15.40625 -11.953125 C 14.875 -13.109375 14.117188 -14 13.140625 -14.625 C 12.160156 -15.257812 11.035156 -15.578125 9.765625 -15.578125 C 7.835938 -15.578125 6.285156 -14.878906 5.109375 -13.484375 C 3.929688 -12.085938 3.34375 -10.25 3.34375 -7.96875 C 3.34375 -5.6875 3.929688 -3.847656 5.109375 -2.453125 Z M 5.109375 -2.453125 "/></g><g id="glyph-0-5"><path d="M 1.65625 -0.234375 C 2.050781 -0.234375 2.390625 -0.367188 2.671875 -0.640625 C 2.953125 -0.921875 3.101562 -1.257812 3.125 -1.65625 L 3.125 -14.28125 C 3.101562 -14.664062 2.953125 -15 2.671875 -15.28125 C 2.390625 -15.5625 2.050781 -15.703125 1.65625 -15.703125 L 1.359375 -15.703125 L 1.359375 -15.9375 L 6.359375 -15.9375 L 6.359375 -15.703125 L 6.0625 -15.703125 C 5.507812 -15.703125 5.085938 -15.46875 4.796875 -15 C 4.660156 -14.769531 4.59375 -14.53125 4.59375 -14.28125 L 4.59375 -0.703125 L 7.859375 -0.703125 C 8.972656 -0.703125 9.828125 -0.953125 10.421875 -1.453125 C 11.015625 -1.953125 11.507812 -2.695312 11.90625 -3.6875 L 12.140625 -3.6875 L 10.8125 0 L 1.359375 0 L 1.359375 -0.234375 Z M 1.65625 -0.234375 "/></g><g id="glyph-0-6"><path d="M 16.296875 -0.234375 L 16.46875 -0.234375 L 16.46875 0 L 11.359375 0 L 11.359375 -0.234375 L 11.5625 -0.234375 C 11.875 -0.234375 12.109375 -0.332031 12.265625 -0.53125 C 12.429688 -0.738281 12.515625 -0.929688 12.515625 -1.109375 C 12.515625 -1.296875 12.484375 -1.476562 12.421875 -1.65625 L 10.96875 -5.53125 L 4.8125 -5.53125 L 3.296875 -1.640625 C 3.234375 -1.453125 3.203125 -1.269531 3.203125 -1.09375 C 3.203125 -0.925781 3.28125 -0.738281 3.4375 -0.53125 C 3.601562 -0.332031 3.84375 -0.234375 4.15625 -0.234375 L 4.359375 -0.234375 L 4.359375 0 L -0.21875 0 L -0.21875 -0.234375 L 0 -0.234375 C 0.375 -0.234375 0.742188 -0.351562 1.109375 -0.59375 C 1.472656 -0.832031 1.769531 -1.1875 2 -1.65625 L 7.140625 -13.90625 C 7.703125 -15.132812 7.984375 -15.914062 7.984375 -16.25 L 8.1875 -16.25 L 14.296875 -1.65625 C 14.503906 -1.1875 14.789062 -0.832031 15.15625 -0.59375 C 15.519531 -0.351562 15.898438 -0.234375 16.296875 -0.234375 Z M 5.09375 -6.21875 L 10.6875 -6.21875 L 7.953125 -13.515625 Z M 5.09375 -6.21875 "/></g><g id="glyph-0-7"><path d="M 15.3125 -15.703125 L 15 -15.703125 C 14.539062 -15.703125 14.109375 -15.578125 13.703125 -15.328125 C 13.304688 -15.078125 12.972656 -14.765625 12.703125 -14.390625 L 8.21875 -7.109375 L 8.21875 -1.65625 C 8.21875 -1.257812 8.351562 -0.921875 8.625 -0.640625 C 8.90625 -0.367188 9.253906 -0.234375 9.671875 -0.234375 L 9.9375 -0.234375 L 9.9375 0 L 4.984375 0 L 4.984375 -0.234375 L 5.28125 -0.234375 C 5.664062 -0.234375 6 -0.367188 6.28125 -0.640625 C 6.5625 -0.910156 6.710938 -1.242188 6.734375 -1.640625 L 6.734375 -7.125 L 2.390625 -14.390625 C 2.160156 -14.753906 1.835938 -15.0625 1.421875 -15.3125 C 1.003906 -15.570312 0.566406 -15.703125 0.109375 -15.703125 L -0.21875 -15.703125 L -0.21875 -15.9375 L 5.390625 -15.9375 L 5.390625 -15.703125 L 5.09375 -15.703125 C 4.757812 -15.703125 4.5 -15.550781 4.3125 -15.25 C 4.226562 -15.082031 4.1875 -14.921875 4.1875 -14.765625 C 4.1875 -14.609375 4.222656 -14.453125 4.296875 -14.296875 L 7.703125 -7.921875 L 11.359375 -14.3125 C 11.429688 -14.46875 11.46875 -14.617188 11.46875 -14.765625 C 11.46875 -14.921875 11.414062 -15.082031 11.3125 -15.25 C 11.125 -15.550781 10.863281 -15.703125 10.53125 -15.703125 L 10.265625 -15.703125 L 10.265625 -15.9375 L 15.3125 -15.9375 Z M 15.3125 -15.703125 "/></g><g id="glyph-0-8"/><g id="glyph-0-9"><path d="M 9.078125 -15.9375 C 11.503906 -15.9375 13.472656 -15.203125 14.984375 -13.734375 C 16.492188 -12.273438 17.25 -10.351562 17.25 -7.96875 C 17.25 -5.582031 16.492188 -3.65625 14.984375 -2.1875 C 13.472656 -0.726562 11.503906 0 9.078125 0 L 1.359375 0 L 1.359375 -0.234375 L 1.65625 -0.234375 C 2.050781 -0.234375 2.390625 -0.367188 2.671875 -0.640625 C 2.953125 -0.921875 3.101562 -1.257812 3.125 -1.65625 L 3.125 -14.40625 C 3.125 -14.769531 2.972656 -15.078125 2.671875 -15.328125 C 2.378906 -15.578125 2.039062 -15.703125 1.65625 -15.703125 L 1.390625 -15.703125 L 1.359375 -15.9375 Z M 4.59375 -15.25 L 4.59375 -0.6875 L 9.078125 -0.6875 C 10.359375 -0.6875 11.488281 -0.988281 12.46875 -1.59375 C 13.445312 -2.195312 14.203125 -3.050781 14.734375 -4.15625 C 15.273438 -5.257812 15.546875 -6.53125 15.546875 -7.96875 C 15.546875 -10.15625 14.945312 -11.914062 13.75 -13.25 C 12.5625 -14.582031 11.003906 -15.25 9.078125 -15.25 Z M 4.59375 -15.25 "/></g><g id="glyph-0-10"><path d="M 13.40625 -13.90625 C 13.40625 -14.269531 13.273438 -14.582031 13.015625 -14.84375 C 12.765625 -15.113281 12.460938 -15.257812 12.109375 -15.28125 L 7.78125 -15.28125 L 7.78125 -1.640625 C 7.800781 -1.242188 7.953125 -0.910156 8.234375 -0.640625 C 8.515625 -0.367188 8.851562 -0.234375 9.25 -0.234375 L 9.53125 -0.234375 L 9.53125 0 L 4.546875 0 L 4.546875 -0.234375 L 4.84375 -0.234375 C 5.238281 -0.234375 5.578125 -0.367188 5.859375 -0.640625 C 6.140625 -0.910156 6.289062 -1.234375 6.3125 -1.609375 L 6.3125 -15.28125 L 1.984375 -15.28125 C 1.617188 -15.257812 1.3125 -15.113281 1.0625 -14.84375 C 0.8125 -14.582031 0.6875 -14.269531 0.6875 -13.90625 L 0.6875 -13.515625 L 0.453125 -13.5 L 0.453125 -16.375 C 0.679688 -16.28125 1.078125 -16.1875 1.640625 -16.09375 C 2.203125 -16 2.71875 -15.953125 3.1875 -15.953125 L 10.875 -15.953125 C 11.625 -15.953125 12.242188 -16.007812 12.734375 -16.125 C 13.234375 -16.238281 13.535156 -16.320312 13.640625 -16.375 L 13.640625 -13.5 L 13.40625 -13.515625 Z M 13.40625 -13.90625 "/></g><g id="glyph-0-11"><path d="M 4.515625 -17.703125 C 4.328125 -17.515625 4.097656 -17.421875 3.828125 -17.421875 C 3.554688 -17.421875 3.320312 -17.515625 3.125 -17.703125 C 2.9375 -17.890625 2.84375 -18.117188 2.84375 -18.390625 C 2.84375 -18.660156 2.9375 -18.890625 3.125 -19.078125 C 3.320312 -19.273438 3.554688 -19.375 3.828125 -19.375 C 4.097656 -19.375 4.328125 -19.273438 4.515625 -19.078125 C 4.703125 -18.890625 4.796875 -18.660156 4.796875 -18.390625 C 4.796875 -18.117188 4.703125 -17.890625 4.515625 -17.703125 Z M 1.65625 -0.234375 C 2.050781 -0.234375 2.390625 -0.367188 2.671875 -0.640625 C 2.953125 -0.921875 3.101562 -1.257812 3.125 -1.65625 L 3.125 -14.296875 C 3.101562 -14.691406 2.953125 -15.023438 2.671875 -15.296875 C 2.390625 -15.566406 2.050781 -15.703125 1.65625 -15.703125 L 1.359375 -15.703125 L 1.359375 -15.9375 L 6.359375 -15.9375 L 6.359375 -15.703125 L 6.0625 -15.703125 C 5.664062 -15.703125 5.328125 -15.566406 5.046875 -15.296875 C 4.765625 -15.023438 4.613281 -14.691406 4.59375 -14.296875 L 4.59375 -1.65625 C 4.59375 -1.257812 4.738281 -0.921875 5.03125 -0.640625 C 5.320312 -0.367188 5.664062 -0.234375 6.0625 -0.234375 L 6.359375 -0.234375 L 6.359375 0 L 1.359375 0 L 1.359375 -0.234375 Z M 1.65625 -0.234375 "/></g><g id="glyph-0-12"><path d="M 20.484375 -0.234375 L 20.859375 -0.234375 L 20.859375 0 L 15.90625 0 L 15.90625 -0.203125 L 16.25 -0.203125 C 16.507812 -0.203125 16.726562 -0.300781 16.90625 -0.5 C 17.09375 -0.707031 17.171875 -0.9375 17.140625 -1.1875 L 16.125 -12.640625 L 11.34375 -2 C 10.914062 -1.070312 10.65625 -0.300781 10.5625 0.3125 L 10.328125 0.3125 L 4.5 -12.3125 L 3.53125 -1.1875 C 3.5 -0.9375 3.570312 -0.707031 3.75 -0.5 C 3.9375 -0.300781 4.148438 -0.203125 4.390625 -0.203125 L 4.765625 -0.203125 L 4.765625 0 L 0.34375 0 L 0.34375 -0.234375 L 0.703125 -0.234375 C 1.128906 -0.234375 1.5 -0.359375 1.8125 -0.609375 C 2.125 -0.867188 2.3125 -1.21875 2.375 -1.65625 L 4.078125 -16.25 L 4.296875 -16.25 L 10.65625 -2.53125 L 16.875 -16.25 L 17.078125 -16.25 L 18.828125 -1.65625 C 18.898438 -1.050781 19.203125 -0.628906 19.734375 -0.390625 C 19.960938 -0.285156 20.210938 -0.234375 20.484375 -0.234375 Z M 20.484375 -0.234375 "/></g></g><clipPath id="clip-0"><path d="M 0.785156 28 L 28 28 L 28 56 L 0.785156 56 Z M 0.785156 28 " clip-rule="nonzero"/></clipPath><clipPath id="clip-1"><path d="M 14.410156 28.453125 L 28.117188 42.15625 L 14.410156 55.863281 L 0.707031 42.15625 Z M 14.410156 28.453125 " clip-rule="nonzero"/></clipPath><clipPath id="clip-2"><path d="M 14.410156 28.453125 L 28.117188 42.15625 L 14.410156 55.863281 L 0.707031 42.15625 Z M 14.410156 28.453125 " clip-rule="nonzero"/></clipPath></defs><g fill="rgb(0%, 29.019165%, 67.83905%)" fill-opacity="1"><use x="29.679117" y="48.050944" xmlns:xlink="http://www.w3.org/1999/xlink" xlink:href="#glyph-0-1" xlink:type="simple" xlink:actuate="onLoad" xlink:show="embed"/></g><g fill="rgb(0%, 29.019165%, 67.83905%)" fill-opacity="1"><use x="43.130649" y="48.050944" xmlns:xlink="http://www.w3.org/1999/xlink" xlink:href="#glyph-0-2" xlink:type="simple" xlink:actuate="onLoad" xlink:show="embed"/></g><g fill="rgb(0%, 29.019165%, 67.83905%)" fill-opacity="1"><use x="62.590934" y="48.050944" xmlns:xlink="http://www.w3.org/1999/xlink" xlink:href="#glyph-0-3" xlink:type="simple" xlink:actuate="onLoad" xlink:show="embed"/></g><g fill="rgb(0%, 29.019165%, 67.83905%)" fill-opacity="1"><use x="77.863299" y="48.050944" xmlns:xlink="http://www.w3.org/1999/xlink" xlink:href="#glyph-0-4" xlink:type="simple" xlink:actuate="onLoad" xlink:show="embed"/></g><g fill="rgb(0%, 29.019165%, 67.83905%)" fill-opacity="1"><use x="97.255298" y="48.050944" xmlns:xlink="http://www.w3.org/1999/xlink" xlink:href="#glyph-0-5" xlink:type="simple" xlink:actuate="onLoad" xlink:show="embed"/></g><g fill="rgb(0%, 29.019165%, 67.83905%)" fill-opacity="1"><use x="110.365426" y="48.050944" xmlns:xlink="http://www.w3.org/1999/xlink" xlink:href="#glyph-0-6" xlink:type="simple" xlink:actuate="onLoad" xlink:show="embed"/></g><g fill="rgb(0%, 29.019165%, 67.83905%)" fill-opacity="1"><use x="126.889618" y="48.050944" xmlns:xlink="http://www.w3.org/1999/xlink" xlink:href="#glyph-0-7" xlink:type="simple" xlink:actuate="onLoad" xlink:show="embed"/></g><g fill="rgb(0%, 29.019165%, 67.83905%)" fill-opacity="1"><use x="142.253034" y="48.050944" xmlns:xlink="http://www.w3.org/1999/xlink" xlink:href="#glyph-0-8" xlink:type="simple" xlink:actuate="onLoad" xlink:show="embed"/></g><g fill="rgb(0%, 29.019165%, 67.83905%)" fill-opacity="1"><use x="148.261912" y="48.050944" xmlns:xlink="http://www.w3.org/1999/xlink" xlink:href="#glyph-0-9" xlink:type="simple" xlink:actuate="onLoad" xlink:show="embed"/></g><g fill="rgb(0%, 29.019165%, 67.83905%)" fill-opacity="1"><use x="166.94835" y="48.050944" xmlns:xlink="http://www.w3.org/1999/xlink" xlink:href="#glyph-0-1" xlink:type="simple" xlink:actuate="onLoad" xlink:show="embed"/></g><g fill="rgb(0%, 29.019165%, 67.83905%)" fill-opacity="1"><use x="180.399886" y="48.050944" xmlns:xlink="http://www.w3.org/1999/xlink" xlink:href="#glyph-0-2" xlink:type="simple" xlink:actuate="onLoad" xlink:show="embed"/></g><g fill="rgb(0%, 29.019165%, 67.83905%)" fill-opacity="1"><use x="199.860176" y="48.050944" xmlns:xlink="http://www.w3.org/1999/xlink" xlink:href="#glyph-0-1" xlink:type="simple" xlink:actuate="onLoad" xlink:show="embed"/></g><g fill="rgb(0%, 29.019165%, 67.83905%)" fill-opacity="1"><use x="213.311713" y="48.050944" xmlns:xlink="http://www.w3.org/1999/xlink" xlink:href="#glyph-0-10" xlink:type="simple" xlink:actuate="onLoad" xlink:show="embed"/></g><g fill="rgb(0%, 29.019165%, 67.83905%)" fill-opacity="1"><use x="227.696421" y="48.050944" xmlns:xlink="http://www.w3.org/1999/xlink" xlink:href="#glyph-0-11" xlink:type="simple" xlink:actuate="onLoad" xlink:show="embed"/></g><g fill="rgb(0%, 29.019165%, 67.83905%)" fill-opacity="1"><use x="235.708213" y="48.050944" xmlns:xlink="http://www.w3.org/1999/xlink" xlink:href="#glyph-0-12" xlink:type="simple" xlink:actuate="onLoad" xlink:show="embed"/></g><g clip-path="url(#clip-0)"><g clip-path="url(#clip-1)"><g clip-path="url(#clip-2)"><path fill="rgb(0%, 29.019165%, 67.83905%)" d="M 27.785156 41.824219 L 14.742188 28.785156 C 14.566406 28.605469 14.273438 28.605469 14.097656 28.78125 L 1.035156 41.84375 C 0.859375 42.019531 0.859375 42.3125 1.035156 42.488281 L 14.078125 55.53125 C 14.257812 55.710938 14.546875 55.710938 14.726562 55.53125 L 27.785156 42.472656 C 27.964844 42.292969 27.964844 42.003906 27.785156 41.824219 Z M 5.277344 42.488281 L 11.632812 48.84375 L 10.160156 50.320312 L 2.007812 42.167969 L 14.417969 29.753906 L 15.894531 31.226562 L 5.277344 41.84375 C 5.101562 42.019531 5.101562 42.3125 5.277344 42.488281 Z M 9.519531 42.488281 L 13.753906 46.722656 L 12.28125 48.199219 L 6.25 42.167969 L 16.539062 31.875 L 18.015625 33.347656 L 9.519531 41.84375 C 9.34375 42.019531 9.34375 42.3125 9.519531 42.488281 Z M 10.492188 42.167969 L 14.417969 38.238281 L 18.332031 42.148438 L 14.402344 46.078125 Z M 19.300781 41.824219 L 15.066406 37.589844 L 16.539062 36.117188 L 22.574219 42.148438 L 12.28125 52.441406 L 10.804688 50.964844 L 19.300781 42.472656 C 19.480469 42.292969 19.480469 42.003906 19.300781 41.824219 Z M 23.542969 41.824219 L 17.1875 35.46875 L 18.660156 33.996094 L 26.816406 42.148438 L 14.402344 54.5625 L 12.925781 53.085938 L 23.542969 42.472656 C 23.722656 42.292969 23.722656 42.003906 23.542969 41.824219 Z M 23.542969 41.824219 " fill-opacity="1" fill-rule="nonzero"/></g></g></g></svg>