<?xml version="1.0" encoding="UTF-8"?>
<svg xmlns="http://www.w3.org/2000/svg" xmlns:xlink="http://www.w3.org/1999/xlink" width="566.25pt" height="74.999997pt" viewBox="0 0 566.25 74.999997" version="1.2">
<defs>
<g>
<symbol overflow="visible" id="glyph0-0">
<path style="stroke:none;" d=""/>
</symbol>
<symbol overflow="visible" id="glyph0-1">
<path style="stroke:none;" d="M 41.484375 -36.78125 C 40.585938 -36.78125 39.816406 -36.46875 39.171875 -35.84375 C 38.535156 -35.226562 38.203125 -34.476562 38.171875 -33.59375 L 38.171875 -6.078125 C 38.171875 -4.015625 38.296875 -2.0625 38.546875 -0.21875 L 38.65625 0.75 L 38.171875 0.75 L 9.109375 -30.28125 L 9.109375 -3.734375 C 9.148438 -2.484375 9.703125 -1.554688 10.765625 -0.953125 C 11.265625 -0.671875 11.800781 -0.53125 12.375 -0.53125 L 13.375 -0.53125 L 13.375 0 L 2.40625 0 L 2.40625 -0.53125 L 3.40625 -0.53125 C 4.300781 -0.53125 5.066406 -0.84375 5.703125 -1.46875 C 6.347656 -2.09375 6.671875 -2.863281 6.671875 -3.78125 L 6.671875 -31.453125 C 6.671875 -33.617188 6.546875 -35.554688 6.296875 -37.265625 L 6.1875 -38.125 L 6.71875 -38.125 L 35.765625 -7.09375 L 35.765625 -33.53125 C 35.734375 -34.457031 35.394531 -35.226562 34.75 -35.84375 C 34.113281 -36.46875 33.351562 -36.78125 32.46875 -36.78125 L 31.453125 -36.78125 L 31.453125 -37.3125 L 42.4375 -37.3125 L 42.4375 -36.78125 Z M 41.484375 -36.78125 "/>
</symbol>
<symbol overflow="visible" id="glyph0-2">
<path style="stroke:none;" d="M 14.1875 -0.53125 L 14.875 -0.53125 L 14.875 0 L 3.203125 0 L 3.203125 -0.53125 L 3.890625 -0.53125 C 4.816406 -0.53125 5.609375 -0.859375 6.265625 -1.515625 C 6.921875 -2.171875 7.265625 -2.960938 7.296875 -3.890625 L 7.296875 -33.484375 C 7.265625 -34.398438 6.921875 -35.175781 6.265625 -35.8125 C 5.609375 -36.457031 4.816406 -36.78125 3.890625 -36.78125 L 3.203125 -36.78125 L 3.203125 -37.3125 L 14.875 -37.3125 L 14.875 -36.78125 L 14.1875 -36.78125 C 13.257812 -36.78125 12.46875 -36.457031 11.8125 -35.8125 C 11.15625 -35.175781 10.804688 -34.398438 10.765625 -33.484375 L 10.765625 -3.890625 C 10.765625 -2.960938 11.101562 -2.171875 11.78125 -1.515625 C 12.457031 -0.859375 13.257812 -0.53125 14.1875 -0.53125 Z M 35.609375 0 L 33.328125 0 C 29.691406 0 27.023438 -1.007812 25.328125 -3.03125 L 12.46875 -18.546875 L 25.0625 -34.328125 C 25.34375 -34.679688 25.484375 -35 25.484375 -35.28125 C 25.484375 -35.570312 25.429688 -35.828125 25.328125 -36.046875 C 25.035156 -36.578125 24.519531 -36.84375 23.78125 -36.84375 L 23.25 -36.84375 L 23.25 -37.3125 L 34.5 -37.3125 L 34.5 -36.84375 L 34.28125 -36.84375 C 31.9375 -36.84375 30.015625 -36.003906 28.515625 -34.328125 L 16 -19.828125 L 30.546875 -2.71875 C 31.972656 -1.300781 33.660156 -0.570312 35.609375 -0.53125 Z M 35.609375 0 "/>
</symbol>
<symbol overflow="visible" id="glyph0-3">
<path style="stroke:none;" d="M 9.03125 -32.703125 C 12.570312 -36.273438 17.1875 -38.0625 22.875 -38.0625 C 28.5625 -38.0625 33.179688 -36.273438 36.734375 -32.703125 C 40.285156 -29.128906 42.0625 -24.445312 42.0625 -18.65625 C 42.0625 -12.863281 40.285156 -8.179688 36.734375 -4.609375 C 33.179688 -1.035156 28.5625 0.75 22.875 0.75 C 17.1875 0.75 12.570312 -1.035156 9.03125 -4.609375 C 5.5 -8.179688 3.734375 -12.863281 3.734375 -18.65625 C 3.734375 -24.445312 5.5 -29.128906 9.03125 -32.703125 Z M 11.96875 -5.75 C 14.71875 -2.488281 18.359375 -0.859375 22.890625 -0.859375 C 27.421875 -0.859375 31.0625 -2.488281 33.8125 -5.75 C 36.570312 -9.019531 37.953125 -13.320312 37.953125 -18.65625 C 37.953125 -22.175781 37.332031 -25.285156 36.09375 -27.984375 C 34.851562 -30.691406 33.082031 -32.78125 30.78125 -34.25 C 28.488281 -35.726562 25.851562 -36.46875 22.875 -36.46875 C 18.351562 -36.46875 14.71875 -34.832031 11.96875 -31.5625 C 9.21875 -28.289062 7.84375 -23.988281 7.84375 -18.65625 C 7.84375 -13.320312 9.21875 -9.019531 11.96875 -5.75 Z M 11.96875 -5.75 "/>
</symbol>
<symbol overflow="visible" id="glyph0-4">
<path style="stroke:none;" d="M 3.890625 -0.53125 C 4.816406 -0.53125 5.609375 -0.859375 6.265625 -1.515625 C 6.921875 -2.171875 7.265625 -2.960938 7.296875 -3.890625 L 7.296875 -33.421875 C 7.265625 -34.347656 6.921875 -35.140625 6.265625 -35.796875 C 5.609375 -36.453125 4.816406 -36.78125 3.890625 -36.78125 L 3.203125 -36.78125 L 3.203125 -37.3125 L 14.875 -37.3125 L 14.875 -36.78125 L 14.1875 -36.78125 C 12.90625 -36.78125 11.925781 -36.234375 11.25 -35.140625 C 10.925781 -34.597656 10.765625 -34.023438 10.765625 -33.421875 L 10.765625 -1.65625 L 18.390625 -1.65625 C 21.023438 -1.65625 23.035156 -2.238281 24.421875 -3.40625 C 25.804688 -4.582031 26.957031 -6.328125 27.875 -8.640625 L 28.421875 -8.640625 L 25.328125 0 L 3.203125 0 L 3.203125 -0.53125 Z M 3.890625 -0.53125 "/>
</symbol>
<symbol overflow="visible" id="glyph0-5">
<path style="stroke:none;" d="M 38.171875 -0.53125 L 38.59375 -0.53125 L 38.59375 0 L 26.59375 0 L 26.59375 -0.53125 L 27.078125 -0.53125 C 27.828125 -0.53125 28.382812 -0.769531 28.75 -1.25 C 29.125 -1.726562 29.3125 -2.179688 29.3125 -2.609375 C 29.3125 -3.035156 29.242188 -3.460938 29.109375 -3.890625 L 25.6875 -12.953125 L 11.296875 -12.953125 L 7.71875 -3.84375 C 7.582031 -3.414062 7.515625 -2.992188 7.515625 -2.578125 C 7.515625 -2.171875 7.695312 -1.726562 8.0625 -1.25 C 8.4375 -0.769531 9 -0.53125 9.75 -0.53125 L 10.234375 -0.53125 L 10.234375 0 L -0.484375 0 L -0.484375 -0.53125 L 0 -0.53125 C 0.882812 -0.53125 1.753906 -0.8125 2.609375 -1.375 C 3.460938 -1.945312 4.15625 -2.785156 4.6875 -3.890625 L 16.734375 -32.578125 C 18.046875 -35.453125 18.703125 -37.28125 18.703125 -38.0625 L 19.1875 -38.0625 L 33.46875 -3.890625 C 33.96875 -2.785156 34.644531 -1.945312 35.5 -1.375 C 36.351562 -0.8125 37.242188 -0.53125 38.171875 -0.53125 Z M 11.9375 -14.546875 L 25.046875 -14.546875 L 18.65625 -31.671875 Z M 11.9375 -14.546875 "/>
</symbol>
<symbol overflow="visible" id="glyph0-6">
<path style="stroke:none;" d="M 35.875 -36.78125 L 35.125 -36.78125 C 34.0625 -36.78125 33.054688 -36.488281 32.109375 -35.90625 C 31.171875 -35.320312 30.378906 -34.582031 29.734375 -33.6875 L 19.234375 -16.640625 L 19.234375 -3.890625 C 19.234375 -2.960938 19.5625 -2.171875 20.21875 -1.515625 C 20.882812 -0.859375 21.695312 -0.53125 22.65625 -0.53125 L 23.296875 -0.53125 L 23.296875 0 L 11.671875 0 L 11.671875 -0.53125 L 12.359375 -0.53125 C 13.285156 -0.53125 14.078125 -0.847656 14.734375 -1.484375 C 15.390625 -2.128906 15.738281 -2.914062 15.78125 -3.84375 L 15.78125 -16.6875 L 5.59375 -33.6875 C 5.0625 -34.539062 4.304688 -35.269531 3.328125 -35.875 C 2.347656 -36.476562 1.328125 -36.78125 0.265625 -36.78125 L -0.484375 -36.78125 L -0.484375 -37.3125 L 12.625 -37.3125 L 12.625 -36.78125 L 11.9375 -36.78125 C 11.15625 -36.78125 10.550781 -36.425781 10.125 -35.71875 C 9.90625 -35.332031 9.796875 -34.953125 9.796875 -34.578125 C 9.796875 -34.203125 9.882812 -33.835938 10.0625 -33.484375 L 18.0625 -18.546875 L 26.59375 -33.53125 C 26.769531 -33.882812 26.859375 -34.238281 26.859375 -34.59375 C 26.859375 -34.957031 26.734375 -35.332031 26.484375 -35.71875 C 26.054688 -36.425781 25.453125 -36.78125 24.671875 -36.78125 L 24.03125 -36.78125 L 24.03125 -37.3125 L 35.875 -37.3125 Z M 35.875 -36.78125 "/>
</symbol>
<symbol overflow="visible" id="glyph0-7">
<path style="stroke:none;" d=""/>
</symbol>
<symbol overflow="visible" id="glyph0-8">
<path style="stroke:none;" d="M 21.265625 -37.3125 C 26.953125 -37.3125 31.5625 -35.597656 35.09375 -32.171875 C 38.632812 -28.742188 40.40625 -24.238281 40.40625 -18.65625 C 40.40625 -13.082031 38.632812 -8.578125 35.09375 -5.140625 C 31.5625 -1.710938 26.953125 0 21.265625 0 L 3.203125 0 L 3.203125 -0.53125 L 3.890625 -0.53125 C 4.816406 -0.53125 5.609375 -0.859375 6.265625 -1.515625 C 6.921875 -2.171875 7.265625 -2.960938 7.296875 -3.890625 L 7.296875 -33.75 C 7.296875 -34.601562 6.945312 -35.320312 6.25 -35.90625 C 5.5625 -36.488281 4.773438 -36.78125 3.890625 -36.78125 L 3.25 -36.78125 L 3.203125 -37.3125 Z M 10.765625 -35.71875 L 10.765625 -1.59375 L 21.265625 -1.59375 C 24.253906 -1.59375 26.894531 -2.300781 29.1875 -3.71875 C 31.476562 -5.144531 33.253906 -7.144531 34.515625 -9.71875 C 35.773438 -12.300781 36.40625 -15.28125 36.40625 -18.65625 C 36.40625 -23.78125 35.007812 -27.90625 32.21875 -31.03125 C 29.4375 -34.15625 25.785156 -35.71875 21.265625 -35.71875 Z M 10.765625 -35.71875 "/>
</symbol>
<symbol overflow="visible" id="glyph0-9">
<path style="stroke:none;" d="M 3.890625 -0.53125 C 4.816406 -0.53125 5.609375 -0.859375 6.265625 -1.515625 C 6.921875 -2.171875 7.265625 -2.960938 7.296875 -3.890625 L 7.296875 -33.75 C 7.191406 -34.601562 6.816406 -35.320312 6.171875 -35.90625 C 5.535156 -36.488281 4.773438 -36.78125 3.890625 -36.78125 L 3.25 -36.78125 L 3.203125 -37.3125 L 18.8125 -37.3125 C 19.914062 -37.3125 21.113281 -37.414062 22.40625 -37.625 C 23.707031 -37.84375 24.625 -38.0625 25.15625 -38.28125 L 25.15625 -31.5625 L 24.625 -31.5625 L 24.625 -32.515625 C 24.625 -33.367188 24.332031 -34.097656 23.75 -34.703125 C 23.164062 -35.304688 22.460938 -35.628906 21.640625 -35.671875 L 10.765625 -35.671875 L 10.765625 -19.1875 L 19.78125 -19.1875 C 20.488281 -19.226562 21.09375 -19.492188 21.59375 -19.984375 C 22.09375 -20.484375 22.34375 -21.109375 22.34375 -21.859375 L 22.34375 -22.609375 L 22.875 -22.609375 L 22.875 -14.1875 L 22.34375 -14.1875 L 22.34375 -14.984375 C 22.34375 -15.691406 22.101562 -16.296875 21.625 -16.796875 C 21.144531 -17.296875 20.546875 -17.5625 19.828125 -17.59375 L 10.765625 -17.59375 L 10.765625 -1.65625 L 18.390625 -1.65625 C 21.023438 -1.65625 23.035156 -2.238281 24.421875 -3.40625 C 25.804688 -4.582031 26.957031 -6.328125 27.875 -8.640625 L 28.421875 -8.640625 L 25.328125 0 L 3.203125 0 L 3.203125 -0.53125 Z M 3.890625 -0.53125 "/>
</symbol>
<symbol overflow="visible" id="glyph0-10">
<path style="stroke:none;" d="M 31.40625 -32.578125 C 31.40625 -33.429688 31.101562 -34.164062 30.5 -34.78125 C 29.894531 -35.40625 29.179688 -35.734375 28.359375 -35.765625 L 18.234375 -35.765625 L 18.234375 -3.84375 C 18.265625 -2.914062 18.609375 -2.128906 19.265625 -1.484375 C 19.929688 -0.847656 20.722656 -0.53125 21.640625 -0.53125 L 22.34375 -0.53125 L 22.34375 0 L 10.65625 0 L 10.65625 -0.53125 L 11.359375 -0.53125 C 12.273438 -0.53125 13.0625 -0.847656 13.71875 -1.484375 C 14.382812 -2.128906 14.734375 -2.894531 14.765625 -3.78125 L 14.765625 -35.765625 L 4.640625 -35.765625 C 3.785156 -35.734375 3.0625 -35.40625 2.46875 -34.78125 C 1.882812 -34.164062 1.59375 -33.429688 1.59375 -32.578125 L 1.59375 -31.671875 L 1.0625 -31.609375 L 1.0625 -38.328125 C 1.59375 -38.117188 2.515625 -37.90625 3.828125 -37.6875 C 5.148438 -37.476562 6.363281 -37.375 7.46875 -37.375 L 25.484375 -37.375 C 27.222656 -37.375 28.671875 -37.503906 29.828125 -37.765625 C 30.984375 -38.035156 31.6875 -38.222656 31.9375 -38.328125 L 31.9375 -31.609375 L 31.40625 -31.671875 Z M 31.40625 -32.578125 "/>
</symbol>
<symbol overflow="visible" id="glyph0-11">
<path style="stroke:none;" d="M 10.578125 -41.4375 C 10.140625 -41 9.597656 -40.78125 8.953125 -40.78125 C 8.316406 -40.78125 7.773438 -41 7.328125 -41.4375 C 6.890625 -41.882812 6.671875 -42.425781 6.671875 -43.0625 C 6.671875 -43.707031 6.890625 -44.253906 7.328125 -44.703125 C 7.773438 -45.148438 8.316406 -45.375 8.953125 -45.375 C 9.597656 -45.375 10.140625 -45.148438 10.578125 -44.703125 C 11.023438 -44.253906 11.25 -43.707031 11.25 -43.0625 C 11.25 -42.425781 11.023438 -41.882812 10.578125 -41.4375 Z M 3.890625 -0.53125 C 4.816406 -0.53125 5.609375 -0.859375 6.265625 -1.515625 C 6.921875 -2.171875 7.265625 -2.960938 7.296875 -3.890625 L 7.296875 -33.484375 C 7.265625 -34.398438 6.921875 -35.175781 6.265625 -35.8125 C 5.609375 -36.457031 4.816406 -36.78125 3.890625 -36.78125 L 3.203125 -36.78125 L 3.203125 -37.3125 L 14.875 -37.3125 L 14.875 -36.78125 L 14.1875 -36.78125 C 13.257812 -36.78125 12.46875 -36.457031 11.8125 -35.8125 C 11.15625 -35.175781 10.804688 -34.398438 10.765625 -33.484375 L 10.765625 -3.890625 C 10.765625 -2.960938 11.101562 -2.171875 11.78125 -1.515625 C 12.457031 -0.859375 13.257812 -0.53125 14.1875 -0.53125 L 14.875 -0.53125 L 14.875 0 L 3.203125 0 L 3.203125 -0.53125 Z M 3.890625 -0.53125 "/>
</symbol>
<symbol overflow="visible" id="glyph0-12">
<path style="stroke:none;" d="M 47.984375 -0.53125 L 48.828125 -0.53125 L 48.828125 0 L 37.265625 0 L 37.265625 -0.484375 L 38.0625 -0.484375 C 38.664062 -0.484375 39.179688 -0.722656 39.609375 -1.203125 C 40.035156 -1.679688 40.210938 -2.203125 40.140625 -2.765625 L 37.75 -29.59375 L 26.546875 -4.6875 C 25.554688 -2.519531 24.953125 -0.707031 24.734375 0.75 L 24.203125 0.75 L 10.5625 -28.84375 L 8.265625 -2.765625 C 8.191406 -2.203125 8.367188 -1.679688 8.796875 -1.203125 C 9.222656 -0.722656 9.722656 -0.484375 10.296875 -0.484375 L 11.140625 -0.484375 L 11.140625 0 L 0.796875 0 L 0.796875 -0.53125 L 1.65625 -0.53125 C 2.644531 -0.53125 3.503906 -0.832031 4.234375 -1.4375 C 4.960938 -2.039062 5.398438 -2.859375 5.546875 -3.890625 L 9.546875 -38.0625 L 10.078125 -38.0625 L 24.953125 -5.921875 L 39.5 -38.0625 L 39.984375 -38.0625 L 44.09375 -3.890625 C 44.269531 -2.472656 44.976562 -1.476562 46.21875 -0.90625 C 46.75 -0.65625 47.335938 -0.53125 47.984375 -0.53125 Z M 47.984375 -0.53125 "/>
</symbol>
</g>
<clipPath id="clip1">
  <path d="M 0 10 L 59 10 L 59 70 L 0 70 Z M 0 10 "/>
</clipPath>
<clipPath id="clip2">
  <path d="M 29.703125 10.140625 L 59.363281 39.800781 L 29.703125 69.460938 L 0.0429688 39.800781 Z M 29.703125 10.140625 "/>
</clipPath>
<clipPath id="clip3">
  <path d="M 29.703125 10.140625 L 59.363281 39.800781 L 29.703125 69.460938 L 0.0429688 39.800781 Z M 29.703125 10.140625 "/>
</clipPath>
</defs>
<g id="surface1">
<g style="fill:rgb(0%,29.019165%,67.83905%);fill-opacity:1;">
  <use xlink:href="#glyph0-1" x="58.324848" y="57.767925"/>
</g>
<g style="fill:rgb(0%,29.019165%,67.83905%);fill-opacity:1;">
  <use xlink:href="#glyph0-2" x="103.893683" y="57.767925"/>
</g>
<g style="fill:rgb(0%,29.019165%,67.83905%);fill-opacity:1;">
  <use xlink:href="#glyph0-3" x="139.655939" y="57.767925"/>
</g>
<g style="fill:rgb(0%,29.019165%,67.83905%);fill-opacity:1;">
  <use xlink:href="#glyph0-4" x="185.06488" y="57.767925"/>
</g>
<g style="fill:rgb(0%,29.019165%,67.83905%);fill-opacity:1;">
  <use xlink:href="#glyph0-5" x="215.763964" y="57.767925"/>
</g>
<g style="fill:rgb(0%,29.019165%,67.83905%);fill-opacity:1;">
  <use xlink:href="#glyph0-6" x="254.457532" y="57.767925"/>
</g>
<g style="fill:rgb(0%,29.019165%,67.83905%);fill-opacity:1;">
  <use xlink:href="#glyph0-7" x="290.432975" y="57.767925"/>
</g>
<g style="fill:rgb(0%,29.019165%,67.83905%);fill-opacity:1;">
  <use xlink:href="#glyph0-8" x="304.503503" y="57.767925"/>
</g>
<g style="fill:rgb(0%,29.019165%,67.83905%);fill-opacity:1;">
  <use xlink:href="#glyph0-9" x="348.260258" y="57.767925"/>
</g>
<g style="fill:rgb(0%,29.019165%,67.83905%);fill-opacity:1;">
  <use xlink:href="#glyph0-1" x="379.758774" y="57.767925"/>
</g>
<g style="fill:rgb(0%,29.019165%,67.83905%);fill-opacity:1;">
  <use xlink:href="#glyph0-9" x="425.327612" y="57.767925"/>
</g>
<g style="fill:rgb(0%,29.019165%,67.83905%);fill-opacity:1;">
  <use xlink:href="#glyph0-10" x="456.826128" y="57.767925"/>
</g>
<g style="fill:rgb(0%,29.019165%,67.83905%);fill-opacity:1;">
  <use xlink:href="#glyph0-11" x="490.509815" y="57.767925"/>
</g>
<g style="fill:rgb(0%,29.019165%,67.83905%);fill-opacity:1;">
  <use xlink:href="#glyph0-12" x="509.270442" y="57.767925"/>
</g>
<g clip-path="url(#clip1)" clip-rule="nonzero">
<g clip-path="url(#clip2)" clip-rule="nonzero">
<g clip-path="url(#clip3)" clip-rule="nonzero">
<path style=" stroke:none;fill-rule:nonzero;fill:rgb(0%,29.019165%,67.83905%);fill-opacity:1;" d="M 58.644531 39.082031 L 30.421875 10.859375 C 30.035156 10.472656 29.40625 10.472656 29.023438 10.859375 L 0.761719 39.121094 C 0.375 39.507812 0.375 40.136719 0.761719 40.519531 L 28.984375 68.746094 C 29.371094 69.128906 29.996094 69.128906 30.382812 68.746094 L 58.644531 40.484375 C 59.03125 40.097656 59.03125 39.46875 58.644531 39.082031 Z M 9.941406 40.519531 L 23.695312 54.273438 L 20.503906 57.464844 L 2.859375 39.820312 L 29.722656 12.957031 L 32.914062 16.148438 L 9.941406 39.121094 C 9.554688 39.507812 9.554688 40.136719 9.941406 40.519531 Z M 19.121094 40.519531 L 28.285156 49.683594 L 25.09375 52.875 L 12.039062 39.820312 L 34.3125 17.546875 L 37.503906 20.738281 L 19.121094 39.121094 C 18.734375 39.507812 18.734375 40.136719 19.121094 40.519531 Z M 21.21875 39.820312 L 29.722656 31.320312 L 38.1875 39.785156 L 29.683594 48.285156 Z M 40.285156 39.082031 L 31.121094 29.921875 L 34.3125 26.730469 L 47.367188 39.785156 L 25.09375 62.054688 L 21.902344 58.863281 L 40.285156 40.484375 C 40.667969 40.097656 40.667969 39.46875 40.285156 39.082031 Z M 49.464844 39.085938 L 35.710938 25.328125 L 38.902344 22.136719 L 56.546875 39.785156 L 29.683594 66.648438 L 26.492188 63.457031 L 49.464844 40.484375 C 49.851562 40.097656 49.851562 39.46875 49.464844 39.085938 Z M 49.464844 39.085938 "/>
</g>
</g>
</g>
</g>
</svg>
